<?xml version="1.0" encoding="UTF-8"?>
<svg width="45px" height="45px" viewBox="0 0 45 45" version="1.1" xmlns="http://www.w3.org/2000/svg" xmlns:xlink="http://www.w3.org/1999/xlink">
    <!-- Generator: Sketch 63.1 (92452) - https://sketch.com -->
    <title>空调</title>
    <desc>Created with Sketch.</desc>
    <g id="页面-1" stroke="none" stroke-width="1" fill="none" fill-rule="evenodd">
        <g id="项目详情1-1" transform="translate(-147.000000, -327.000000)">
            <g id="空调" transform="translate(147.000000, 327.000000)">
                <rect id="矩形备份-14" stroke="#133A6E" fill="#082955" x="0.5" y="0.5" width="44" height="44" rx="2"></rect>
                <g id="编组" transform="translate(7.200000, 6.300000)" fill="#4179CC" fill-rule="nonzero">
                    <path d="M6.42161348,14.2438653 C6.83284981,14.2438653 7.16675965,14.5691459 7.16675965,14.9697546 L7.16675965,17.2741107 C7.17062598,17.6747194 6.83671613,18 6.42161348,18 L6.15800045,18 C5.74676412,18 5.41285427,17.6747194 5.41285427,17.2741107 L5.41285427,14.9697546 C5.41285427,14.5691459 5.74676412,14.2438653 6.15800045,14.2438653 L6.42161348,14.2438653 Z M15.9081678,14.2438653 C16.3194042,14.2438653 16.653314,14.5691459 16.653314,14.9697546 L16.653314,17.2741107 C16.653314,17.6747194 16.3194042,18 15.9081678,18 L15.6445548,18 C15.2333185,18 14.8994086,17.6747194 14.8994086,17.2741107 L14.8994086,14.9697546 C14.8994086,14.5691459 15.2333185,14.2438653 15.6445548,14.2438653 L15.9081678,14.2438653 Z M25.3915588,14.2438653 C25.8027951,14.2438653 26.136705,14.5691459 26.136705,14.9697546 L26.136705,17.2741107 C26.1363535,17.6747194 25.8024437,18 25.3915588,18 L25.1279458,18 C24.7167094,18 24.3827996,17.6747194 24.3827996,17.2741107 L24.3827996,14.9697546 C24.3827996,14.5691459 24.7167094,14.2438653 25.1279458,14.2438653 L25.3915588,14.2438653 Z M29.7214907,-1.63424829e-14 C30.7021312,-1.63424829e-14 31.5,0.773825376 31.5,1.73254708 L31.5,11.4156363 C31.4964852,12.370934 30.7021312,13.1481834 29.7214907,13.1481834 L1.77850926,13.1481834 C0.797868779,13.1481834 0,12.374358 0,11.4156363 L0,1.73254708 C0,0.777249382 0.794353939,-1.63424829e-14 1.77850926,-1.63424829e-14 L29.7214907,-1.63424829e-14 Z M27.4509038,8.77915161 L3.8944432,8.77915161 C3.42345459,8.77915161 3.04033698,9.15236827 3.04033698,9.61118509 C3.04033698,10.0347083 3.36678038,10.3852941 3.78744775,10.4367243 L3.8944432,10.4432186 L27.4509038,10.4432186 C27.9222439,10.4432186 28.30501,10.0700019 28.30501,9.61118509 C28.30501,9.15236827 27.9218924,8.77915161 27.4509038,8.77915161 Z M27.3560031,2.27696405 C26.8318811,2.27696405 26.4069962,2.69086858 26.4069962,3.20144569 C26.4069962,3.53173118 26.5878759,3.83692757 26.8814996,4.00207033 C27.1751234,4.16721308 27.5368828,4.16721308 27.8305066,4.00207033 C28.1241304,3.83692757 28.30501,3.53173118 28.30501,3.20144569 C28.30501,2.69086858 27.8801252,2.27696405 27.3560031,2.27696405 Z" id="形状结合"></path>
                </g>
                <text id="空-调" font-family="SourceHanSansCN-Regular, Source Han Sans CN" font-size="10" font-weight="normal" letter-spacing="0.625" fill="#7F94B2">
                    <tspan x="11.7" y="39.1">空 调</tspan>
                </text>
            </g>
        </g>
    </g>
</svg>