<?xml version="1.0" encoding="UTF-8"?>
<svg width="70px" height="30px" viewBox="0 0 70 30" version="1.1" xmlns="http://www.w3.org/2000/svg" xmlns:xlink="http://www.w3.org/1999/xlink">
    <title>新建备份</title>
    <g id="页面-1" stroke="none" stroke-width="1" fill="none" fill-rule="evenodd">
        <g id="新建备份">
            <rect id="矩形备份-4" fill="#0167FF" x="0" y="0" width="70" height="30" rx="15"></rect>
            <path d="M16,9 C16.5522847,9 17,9.44771525 17,10 L17,14 L21,14 C21.5522847,14 22,14.4477153 22,15 C22,15.5522847 21.5522847,16 21,16 L16.999,16 L17,20 C17,20.5522847 16.5522847,21 16,21 C15.4477153,21 15,20.5522847 15,20 L14.999,16 L11,16 C10.4477153,16 10,15.5522847 10,15 C10,14.4477153 10.4477153,14 11,14 L15,14 L15,10 C15,9.44771525 15.4477153,9 16,9 Z" id="新建" fill="#FFFFFF"></path>
            <text id="添加" font-family="SourceHanSansCN-Regular, Source Han Sans CN" font-size="14" font-weight="normal" letter-spacing="1.75" fill="#FFFFFF">
                <tspan x="30" y="20">添加</tspan>
            </text>
        </g>
    </g>
</svg>