<?xml version="1.0" encoding="UTF-8"?>
<svg width="21px" height="20px" viewBox="0 0 21 20" version="1.1" xmlns="http://www.w3.org/2000/svg" xmlns:xlink="http://www.w3.org/1999/xlink">
    <!-- Generator: Sketch 61.2 (89653) - https://sketch.com -->
    <title>形状结合</title>
    <desc>Created with Sketch.</desc>
    <g id="页面-1" stroke="none" stroke-width="1" fill="none" fill-rule="evenodd">
        <g id="项目详情" transform="translate(-19.000000, -33.000000)" fill="#0167FF">
            <path d="M29.7140705,33.8594669 L29.8791054,34.0245018 C30.4648919,34.6102883 30.4648919,35.5600357 29.8791054,36.1458222 L24.596,41.428 L38.5,41.4280355 C39.3284271,41.4280355 40,42.0996084 40,42.9280355 L40,43.1614302 C40,43.9898573 39.3284271,44.6614302 38.5,44.6614302 L25.221,44.661 L30.633132,50.0728162 C31.2090503,50.6487345 31.2090503,51.5824826 30.633132,52.1584009 C30.0572137,52.7343192 29.1234656,52.7343192 28.5475473,52.1584009 L19.9634741,43.5743277 C19.3875558,42.9984094 19.3875558,42.0646613 19.9634741,41.488743 L19.9721227,41.4801734 C19.9751795,41.477064 19.9782525,41.4739645 19.9813419,41.4708752 L27.5927502,33.8594669 C28.1785366,33.2736804 29.1282841,33.2736804 29.7140705,33.8594669 Z" id="形状结合"></path>
        </g>
    </g>
</svg>