<?xml version="1.0" encoding="UTF-8"?>
<svg width="375px" height="233px" viewBox="0 0 375 233" version="1.1" xmlns="http://www.w3.org/2000/svg" xmlns:xlink="http://www.w3.org/1999/xlink">
    <!-- Generator: Sketch 63.1 (92452) - https://sketch.com -->
    <title>多边形 + 多边形备份 蒙版</title>
    <desc>Created with Sketch.</desc>
    <defs>
        <rect id="path-1" x="0" y="0" width="375" height="233"></rect>
        <linearGradient x1="31.007881%" y1="7.8425321%" x2="90.0193371%" y2="77.1974695%" id="linearGradient-3">
            <stop stop-color="#0167FF" offset="0%"></stop>
            <stop stop-color="#0167FF" stop-opacity="0" offset="100%"></stop>
        </linearGradient>
    </defs>
    <g id="页面-1" stroke="none" stroke-width="1" fill="none" fill-rule="evenodd">
        <g id="首页1">
            <g id="多边形-+-多边形备份-蒙版">
                <mask id="mask-2" fill="white">
                    <use xlink:href="#path-1"></use>
                </mask>
                <use id="蒙版" fill="#D8D8D8" opacity="0" xlink:href="#path-1"></use>
                <path d="M50,-18 L158.41343,44.5925227 C163.673248,47.6292802 166.91343,53.2414395 166.91343,59.3149546 L166.91343,174.685045 C166.91343,180.75856 163.673248,186.37072 158.41343,189.407477 L50,252 L50,252 L-66.9134295,184.5 L-66.9134295,49.5 L50,-18 Z" id="多边形" fill="url(#linearGradient-3)" opacity="0.255789621" mask="url(#mask-2)" transform="translate(50.000000, 117.000000) rotate(-330.000000) translate(-50.000000, -117.000000) "></path>
                <path d="M345,-22 L420.504464,21.5925227 C425.764282,24.6292802 429.004464,30.2414395 429.004464,36.3149546 L429.004464,113.685045 C429.004464,119.75856 425.764282,125.37072 420.504464,128.407477 L345,172 L345,172 L260.995536,123.5 L260.995536,26.5 L345,-22 Z" id="多边形备份" fill="url(#linearGradient-3)" opacity="0.145182292" mask="url(#mask-2)" transform="translate(345.000000, 75.000000) scale(-1, 1) rotate(-330.000000) translate(-345.000000, -75.000000) "></path>
            </g>
        </g>
    </g>
</svg>