<?xml version="1.0" encoding="UTF-8"?>
<svg width="45px" height="45px" viewBox="0 0 45 45" version="1.1" xmlns="http://www.w3.org/2000/svg" xmlns:xlink="http://www.w3.org/1999/xlink">
    <title>电池</title>
    <g id="页面-1" stroke="none" stroke-width="1" fill="none" fill-rule="evenodd">
        <g id="电池">
            <rect id="矩形备份-16" stroke="#133A6E" fill="#082955" x="0.5" y="0.5" width="44" height="44" rx="2"></rect>
            <text font-family="SourceHanSansCN-Regular, Source Han Sans CN" font-size="10" font-weight="normal" letter-spacing="0.625" fill="#7F94B2">
                <tspan x="12.5" y="39.1">电池</tspan>
            </text>
            <g id="编组" transform="translate(4.000000, 8.000000)" fill="#4179CC" fill-rule="nonzero">
                <path d="M26,22.7557545 C26,23.4974425 25.736861,24.1402387 25.2105831,24.6841432 C24.6843052,25.2280477 23.9560835,25.5 23.0259179,25.5 L12.2311015,25.5 C11.1785457,25.5 10.3768898,25.2033248 9.82613389,24.6099744 C9.27537794,24.016624 9,23.274936 9,22.3849105 L9,-1.16368285 C9,-1.83120204 9.22030238,-2.38746802 9.66090713,-2.83248081 C10.1015119,-3.2774936 10.737941,-3.5 11.5701944,-3.5 L23.5032397,-3.5 C24.3844492,-3.5 25.0208783,-3.2774936 25.412527,-2.83248081 C25.8041756,-2.38746802 26,-1.80647911 26,-1.08951407 L26,22.7557544 L26,22.7557545 Z M15,19.5 L15,21.5 L21,21.5 L21,19.5 L15,19.5 L15,19.5 Z M17.1090909,-0.5 L17.1090909,1.57272726 L15,1.57272726 L15,3.39090909 L17.1090909,3.39090909 L17.1090909,5.5 L18.8909091,5.5 L18.8909091,3.39090909 L21,3.39090909 L21,1.57272726 L18.8909091,1.57272726 L18.8909091,-0.5 L17.1090909,-0.5 L17.1090909,-0.5 Z M17.5344828,-8 C17.7643678,-7.97727269 17.9942529,-7.96590905 18.2241379,-7.96590905 C18.408046,-7.96590905 18.6149425,-7.96022724 18.8448276,-7.94886361 C19.0747126,-7.93749998 19.2931035,-7.93181817 19.5,-7.93181817 C19.9137931,-7.90909089 20.1839081,-7.78409089 20.3103448,-7.55681818 C20.4367816,-7.32954547 20.5,-7.01136365 20.5,-6.60227272 L20.5,-5.47727273 L20.5,-5 L14.5,-5 L14.5,-6.29545453 C14.5,-6.47727271 14.5114943,-6.71022726 14.5344828,-6.99431817 C14.5574713,-7.27840909 14.6609196,-7.5 14.8448276,-7.6590909 C15.0517241,-7.84090908 15.3965517,-7.93749999 15.8793104,-7.94886364 C16.362069,-7.96022729 16.9137931,-7.97727274 17.5344828,-8 L17.5344828,-8 Z" id="形状" transform="translate(17.500000, 8.750000) rotate(-90.000000) translate(-17.500000, -8.750000) "></path>
            </g>
        </g>
    </g>
</svg>