<?xml version="1.0" encoding="UTF-8"?>
<svg width="45px" height="45px" viewBox="0 0 45 45" version="1.1" xmlns="http://www.w3.org/2000/svg" xmlns:xlink="http://www.w3.org/1999/xlink">
    <!-- Generator: Sketch 63.1 (92452) - https://sketch.com -->
    <title>柴油机</title>
    <desc>Created with Sketch.</desc>
    <g id="页面-1" stroke="none" stroke-width="1" fill="none" fill-rule="evenodd">
        <g id="项目详情1-1" transform="translate(-19.000000, -162.000000)">
            <g id="柴油机" transform="translate(19.000000, 162.000000)">
                <rect id="矩形" stroke="#133A6E" fill="#082955" x="0.5" y="0.5" width="44" height="44" rx="2"></rect>
                <g id="编组" transform="translate(9.000000, 5.000000)" fill="#4179CC" fill-rule="nonzero">
                    <polygon id="路径" points="8.80054837e-16 19 26 19 26 21 0 21"></polygon>
                    <path d="M15.3850283,10.8188073 C15.1106819,10.8107832 14.860498,10.6522949 14.726072,10.4013669 C14.5916459,10.1504389 14.5927194,9.84392241 14.7288995,9.59403671 L19.4399046,1 L4.0224078,1 C2.50343883,1.00753168 2.00718201,1.52775538 2,3.12067749 L2,13.8793225 C2.00718201,15.4722446 2.50343883,15.9924683 4.0224078,16 L21.9775922,16 C23.4965612,15.9924683 23.992818,15.4722446 24,13.8793225 L24,10.8188073 L15.3850283,10.8188073 Z M9.79481062,12.8073394 L6.06799879,12.8073394 C5.82339907,12.8073394 5.62511182,12.5993983 5.62511182,12.3428899 C5.62511182,12.0863815 5.82339907,11.8784404 6.06799879,11.8784404 L9.78824932,11.8784404 C10.0310372,11.8765403 10.2293244,12.0814008 10.2311488,12.3360092 C10.2329481,12.5906175 10.0375985,12.7985586 9.79481062,12.8004587 L9.79481062,12.8073394 Z M9.79481062,11.3623853 L6.06799879,11.3623853 C5.81433983,11.3623853 5.60870861,11.1467427 5.60870861,10.8807339 C5.60870861,10.6147252 5.81433983,10.3990826 6.06799879,10.3990826 L9.78824932,10.3990826 C10.0400964,10.3971825 10.2457276,10.6097446 10.2475515,10.8738532 C10.2493513,11.1379618 10.0466577,11.3536045 9.79481062,11.3555046 L9.79481062,11.3623853 Z M9.79481062,9.93807339 L6.06799879,9.93807339 C5.89933904,9.95980344 5.73384099,9.87765079 5.64295263,9.72708198 C5.55206426,9.57651316 5.55206426,9.38449601 5.64295263,9.23392719 C5.73384099,9.08335838 5.89933904,9.00120573 6.06799879,9.02293578 L9.78824932,9.02293578 C9.99896087,9.05978701 10.1539103,9.25015671 10.1555414,9.47417239 C10.1571469,9.69818808 10.0049656,9.89099781 9.79481062,9.93119266 L9.79481062,9.93807339 Z M9.79481062,8.49311926 L6.06799879,8.49311926 C5.82339907,8.49311926 5.62511182,8.28517812 5.62511182,8.02866972 C5.62511182,7.77216132 5.82339907,7.56422018 6.06799879,7.56422018 L9.78824932,7.56422018 C10.0310372,7.56232012 10.2293244,7.76718064 10.2311488,8.02178898 C10.2329481,8.27639732 10.0375985,8.48433846 9.79481062,8.48623854 L9.79481062,8.49311926 Z M11.5729198,5.89220183 L5.79898599,5.89220183 C5.58407706,5.91661093 5.37475824,5.81012169 5.2600145,5.6180045 C5.14527076,5.42588731 5.14527076,5.18191085 5.2600145,4.98979366 C5.37475824,4.79767647 5.58407706,4.69118723 5.79898599,4.71559633 L11.5729198,4.71559633 C11.8481896,4.76000661 12.0513906,5.00839085 12.0513906,5.30045872 C12.0513906,5.59252658 11.8481896,5.84091082 11.5729198,5.88532111 L11.5729198,5.89220183 Z M13.442887,5.30733946 C13.442887,4.93998384 13.653903,4.60880042 13.9775387,4.46821952 C14.3011744,4.32763861 14.6736952,4.40534521 14.9213952,4.66510486 C15.1690952,4.92486451 15.2431942,5.31552198 15.1091399,5.65491432 C14.9750856,5.99430665 14.6592778,6.21559634 14.308977,6.21559634 C14.0781343,6.21559634 13.8568407,6.11896826 13.6942274,5.94714598 C13.5316141,5.7753237 13.4411382,5.5425334 13.442887,5.30045873 L13.442887,5.30733946 Z" id="形状"></path>
                    <path d="M26.9161097,8.96001067 L21.6008859,0.300950563 C21.4831157,0.114380388 21.2694249,0 21.0386359,0 C20.807847,0 20.5941561,0.114380388 20.4763859,0.300950563 L15.1611621,8.96001067 C15.0480174,9.14918638 15.0494079,9.38043178 15.1648202,9.5683932 C15.2802325,9.75635461 15.4925525,9.87315983 15.7234121,9.87569553 L26.3538597,9.87569553 C26.5847193,9.87315982 26.7970394,9.7563546 26.9124517,9.56839319 C27.027864,9.38043177 27.0292544,9.14918637 26.9161097,8.96001067 L26.9161097,8.96001067 Z M22.2481272,5.46655751 L19.1557522,8.33037725 L20.28679,5.99507359 L18.9792319,5.99507359 L20.5156127,3.65976995 L22.4377231,3.65976995 L20.6659819,5.46655751 L22.2481272,5.46655751 L22.2481272,5.46655751 Z M1.37293604,4.21286819 C0.61617147,4.21623164 0.00357813741,4.79207056 0,5.50343073 L0,10.4198595 C0.00357813741,11.1312196 0.61617147,11.7070585 1.37293604,11.710422 L2.15093314,11.710422 L2.15093314,4.21286819 L1.37293604,4.21286819 Z M4.34765638,14.4926213 L4.34765638,15.9306767 C4.35122786,16.5198515 4.85845163,16.9966428 5.48523196,17 L6.66203427,17 C7.27857937,16.9834427 7.77018567,16.5104586 7.77345866,15.9306767 L7.77345866,14.4926213 L4.34765638,14.4926213 L4.34765638,14.4926213 Z M17.6520604,14.4926213 L17.6520604,15.9306767 C17.6556318,16.5198515 18.1628556,16.9966428 18.7896359,17 L19.972976,17 C20.5997564,16.9966428 21.1069801,16.5198515 21.1105516,15.9306767 L21.1105516,14.4926213 L17.6520604,14.4926213 L17.6520604,14.4926213 Z" id="形状"></path>
                </g>
                <text font-family="SourceHanSansCN-Regular, Source Han Sans CN" font-size="10" font-weight="normal" letter-spacing="0.625" fill="#7F94B2">
                    <tspan x="7" y="39">柴油机</tspan>
                </text>
            </g>
        </g>
    </g>
</svg>