<?xml version="1.0" encoding="UTF-8"?>
<svg width="26px" height="26px" viewBox="0 0 26 26" version="1.1" xmlns="http://www.w3.org/2000/svg" xmlns:xlink="http://www.w3.org/1999/xlink">
    <!-- Generator: Sketch 63.1 (92452) - https://sketch.com -->
    <title>财务统计</title>
    <desc>Created with Sketch.</desc>
    <g id="页面-1" stroke="none" stroke-width="1" fill="none" fill-rule="evenodd">
        <g id="首页1" transform="translate(-44.000000, -603.000000)" fill="#A0ACCE" fill-rule="nonzero">
            <g id="财务统计" transform="translate(44.000000, 603.000000)">
                <path d="M20.4014488,1.15816885 C20.0970773,0.801277479 19.7283076,0.509571263 19.3159158,0.29948464 C18.9562712,0.140975859 18.5130393,0.0474671053 17.9906197,0.0178179914 C17.4660004,-0.0106907895 16.8709919,0.160361842 16.2055943,0.536677632 C15.7689615,0.773870623 15.1585554,1.10799342 14.3787754,1.54246711 C13.5978955,1.97694079 12.808217,2.41141447 12.00864,2.84588816 C11.0946806,3.35790569 10.1246299,3.8915899 9.09628807,4.44351974 L22.0599937,4.44351974 L20.4014488,1.15816885 Z M18.5460343,14.2414145 C18.3015377,14.490729 18.1670473,14.8335664 18.1742915,15.1890461 C18.1742915,15.5630811 18.2996722,15.8846601 18.5460343,16.1515022 C18.7956958,16.4172039 19.0992491,16.550625 19.4599937,16.550625 C19.8207382,16.550625 20.1253913,16.4183443 20.3750529,16.1515022 C20.6225148,15.8858005 20.7456958,15.5630811 20.7456958,15.1890461 C20.7456958,14.8127303 20.6225148,14.4979934 20.3750529,14.2414145 C20.1253913,13.9848355 19.8207382,13.8582566 19.4599937,13.8582566 C19.0992491,13.8582566 18.794596,13.9848355 18.5460343,14.2414145 Z" id="形状"></path>
                <path d="M25.9401967,8.49860747 C25.9401967,7.74825658 25.6883354,7.11308115 25.1835131,6.5896601 C24.701203,6.07556883 24.0350839,5.79154355 23.3434962,5.80509868 L2.61498519,5.80509868 C1.89239635,5.80509868 1.27869077,6.06623904 0.773868435,6.5896601 C0.278097096,7.09024682 0.00420225341,7.78122368 0.0171848648,8.49860747 L0.0171848648,23.2695724 C0.0171848648,23.6458882 0.0886738579,23.9959759 0.23165187,24.3209759 C0.671442099,25.3241122 1.63691526,25.9673851 2.69967217,25.9653666 L23.4281832,25.9653666 C23.7900275,25.9653666 24.1221764,25.8958004 24.4279293,25.757818 C25.0362522,25.4800699 25.5133323,24.9632644 25.7543253,24.3209759 C25.879706,23.9959759 25.9401967,23.6458882 25.9401967,23.2695724 L25.9401967,17.8825548 L19.4588938,17.8825548 C18.794596,17.8825548 18.2842745,17.7445724 17.9312288,17.4686075 C17.5803828,17.1926426 17.3263219,16.8870285 17.1745453,16.5494846 C16.9763011,16.1248822 16.8693528,15.6607068 16.8610935,15.1890461 C16.8610935,14.4398355 17.1129548,13.8080811 17.6177771,13.2949233 C18.1045449,12.7887266 18.7696218,12.5106703 19.4588938,12.5251864 L25.9401967,12.5251864 L25.9401967,8.49860747 Z M11.1067788,21.2568531 C10.5469649,21.6639583 9.88816624,21.9490461 9.13368233,22.1189583 L9.13368233,23.2365022 L7.32776015,23.2365022 L7.32776015,22.3036952 C6.02666031,22.2957127 4.88943528,22.0368531 3.91718486,21.5248355 L3.91718486,19.131239 C5.05660958,19.9876426 6.28402074,20.4118531 7.60161802,20.4118531 C9.36354695,20.4118531 10.2445114,19.8154495 10.2445114,18.6169408 C10.2445114,18.1060636 10.0542407,17.6864145 9.66929991,17.3557127 C9.2832593,17.025011 8.5012796,16.6315899 7.32446066,16.1765899 C5.90897843,15.5858882 4.98732021,15.0020285 4.56498519,14.4227303 C4.14155032,13.8457127 3.93038281,13.1466776 3.93038283,12.3244846 C3.93038283,11.1533443 4.41100888,10.2125548 5.36896151,9.50667763 C5.95909784,9.07818218 6.62638293,8.77723456 7.33105964,8.62176536 L7.33105964,7.21115132 L9.13478214,7.21115132 L9.13478214,8.45755483 C10.1334285,8.48378289 11.0682847,8.6696601 11.9338515,9.03343201 L11.9338515,11.2947478 C10.9802982,10.6572916 9.89806472,10.3368531 8.68935067,10.3368531 C7.965662,10.3368531 7.3761527,10.5022039 6.92192259,10.8283443 C6.46659264,11.155625 6.24112732,11.5866776 6.24112732,12.1215022 C6.24112732,12.6472039 6.40280244,13.0588706 6.73165187,13.3530811 C7.05830162,13.648432 7.78418994,14.0270285 8.90821701,14.490011 C10.3313981,15.0396601 11.29375,15.6098355 11.7930732,16.202818 C12.2956959,16.7923794 12.5453575,17.5222039 12.5453575,18.3922917 C12.5453575,19.6033443 12.0647314,20.5589584 11.1067788,21.2568531 Z" id="形状"></path>
            </g>
        </g>
    </g>
</svg>