<?xml version="1.0" encoding="UTF-8"?>
<svg width="45px" height="45px" viewBox="0 0 45 45" version="1.1" xmlns="http://www.w3.org/2000/svg" xmlns:xlink="http://www.w3.org/1999/xlink">
    <!-- Generator: Sketch 63.1 (92452) - https://sketch.com -->
    <title>电表</title>
    <desc>Created with Sketch.</desc>
    <g id="页面-1" stroke="none" stroke-width="1" fill="none" fill-rule="evenodd">
        <g id="项目详情1-1" transform="translate(-220.000000, -162.000000)">
            <g id="电表" transform="translate(220.000000, 162.000000)">
                <rect id="矩形备份-18" stroke="#133A6E" fill="#082955" x="0.5" y="0.5" width="44" height="44" rx="2"></rect>
                <text id="电-表" font-family="SourceHanSansCN-Regular, Source Han Sans CN" font-size="10" font-weight="normal" letter-spacing="0.625" fill="#7F94B2">
                    <tspan x="11" y="39">电 表</tspan>
                </text>
                <g id="形状结合-2" transform="translate(12.000000, 4.000000)" fill="#4179CC">
                    <path d="M7.49257498,0.7125 L20.5,1.76229396 L20.5,2.57511541 L19.6087046,2.57511541 L19.6087046,21.5248833 L7.94732054,22.7125 L0.970593414,20.4770402 L0.970593414,3.62077813 L0.5,3.62077813 L0.5,2.88679451 L7.49257498,0.7125 Z M8.76568645,5.29909434 L8.76568645,21.7135432 L19.0139696,20.8099493 L19.0139696,5.76007185 L8.76568645,5.29909434 Z M9.75074837,5.93140355 L13.889828,6.11857167 L13.889828,20.7634728 L9.75074837,21.1898225 L9.75074837,5.93140355 Z M14.9239009,6.15535118 L18.4980337,6.29828061 L18.4980337,20.2752693 L14.9239009,20.6424045 L14.9239009,6.15535118 Z M12.8214181,13.403669 C12.6554442,13.403669 12.5208957,13.6141145 12.5208957,13.8737122 C12.5208957,14.13331 12.6554442,14.3437555 12.8214181,14.3437555 C12.987392,14.3437555 13.1219405,14.13331 13.1219405,13.8737122 C13.1219405,13.6141145 12.987392,13.403669 12.8214181,13.403669 Z M15.826642,13.403669 C15.6606681,13.403669 15.5261196,13.6141145 15.5261196,13.8737122 C15.5261196,14.13331 15.6606681,14.3437555 15.826642,14.3437555 C15.9926159,14.3437555 16.1271644,14.13331 16.1271644,13.8737122 C16.1271644,13.6141145 15.9926159,13.403669 15.826642,13.403669 Z M12.8997564,3.49424654 L12.8764093,3.4936351 C12.6300616,3.4936351 12.4303575,3.69333929 12.4303575,3.9396869 C12.4303575,4.17389593 12.5933402,4.37166811 12.8143589,4.42241208 L12.8997564,4.43433313 L15.7662059,4.58457434 L15.7895531,4.58518577 C16.0359007,4.58518577 16.2356049,4.38548158 16.2356049,4.13913398 C16.2356049,3.90492494 16.0726222,3.70715277 15.8516034,3.65640879 L15.7662059,3.64448775 L12.8997564,3.49424654 Z" id="形状结合"></path>
                </g>
            </g>
        </g>
    </g>
</svg>