<?xml version="1.0" encoding="UTF-8"?>
<svg width="25px" height="24px" viewBox="0 0 25 24" version="1.1" xmlns="http://www.w3.org/2000/svg" xmlns:xlink="http://www.w3.org/1999/xlink">
    <title>删除</title>
    <g id="页面-1" stroke="none" stroke-width="1" fill="none" fill-rule="evenodd">
        <g id="删除" transform="translate(0.500000, 0.000000)" fill="#FF014F" fill-rule="nonzero">
            <path d="M22.1730769,4.28571429 L1.82692305,4.28571429 C1.09408368,4.28571429 0.5,3.71008038 0.5,3 C0.5,2.28991962 1.09408368,1.71428573 1.82692305,1.71428571 L8.46153843,1.71428571 C8.46153843,0.767511857 9.25365003,0 10.2307692,0 L13.7692307,0 C14.7463499,0 15.5384615,0.767511857 15.5384615,1.71428571 L22.1730769,1.71428571 C22.9059163,1.71428571 23.5,2.28991961 23.5,3 C23.5,3.71008039 22.9059163,4.28571429 22.1730769,4.28571429 L22.1730769,4.28571429 Z M20.8461538,20.5714286 C20.8461538,22.4649763 19.2619306,24 17.3076923,24 L6.69230766,24 C4.73806932,24 3.15384613,22.4649763 3.15384613,20.5714286 L3.15384613,6 L20.8461538,6 L20.8461538,20.5714286 Z M10.2307692,10.7142857 C10.2307692,10.0042053 9.63668549,9.42857147 8.90384613,9.42857147 C8.17100676,9.42857147 7.57692305,10.0042053 7.57692305,10.7142857 L7.57692305,18.4285715 C7.57692305,19.1386518 8.17100675,19.7142857 8.90384613,19.7142857 C9.63668551,19.7142857 10.2307692,19.1386518 10.2307692,18.4285715 L10.2307692,10.7142857 L10.2307692,10.7142857 Z M16.4230769,10.7142857 C16.4230769,10.0042053 15.8289932,9.42857143 15.0961538,9.42857143 C14.3633144,9.42857143 13.7692307,10.0042053 13.7692307,10.7142857 L13.7692307,18.4285714 C13.7692307,19.1386518 14.3633144,19.7142857 15.0961538,19.7142857 C15.8289932,19.7142857 16.4230769,19.1386518 16.4230769,18.4285714 L16.4230769,10.7142857 Z" id="形状"></path>
        </g>
    </g>
</svg>