<?xml version="1.0" encoding="UTF-8"?>
<svg width="45px" height="45px" viewBox="0 0 45 45" version="1.1" xmlns="http://www.w3.org/2000/svg" xmlns:xlink="http://www.w3.org/1999/xlink">
    <!-- Generator: Sketch 63.1 (92452) - https://sketch.com -->
    <title>负载</title>
    <desc>Created with Sketch.</desc>
    <g id="页面-1" stroke="none" stroke-width="1" fill="none" fill-rule="evenodd">
        <g id="项目详情1-1" transform="translate(-305.000000, -162.000000)">
            <g id="负载" transform="translate(305.000000, 162.000000)">
                <rect id="矩形备份-19" stroke="#133A6E" fill="#082955" x="0.5" y="0.5" width="44" height="44" rx="2"></rect>
                <path d="M28.8868421,4 C29.187692,4 29.4315789,4.24388699 29.4315789,4.54473684 L29.431,5.619 L30.6105263,5.62 C31.1628111,5.62 31.6105263,6.06771525 31.6105263,6.62 L31.61,9.94 L31.7,9.94 C32.2522847,9.94 32.7,10.3877153 32.7,10.94 L32.7,18.66 C32.7,19.2122847 32.2522847,19.66 31.7,19.66 L31.61,19.66 L31.6105263,22.98 C31.6105263,23.5322847 31.1628111,23.98 30.6105263,23.98 L29.431,23.979 L29.4315789,24.6 C29.4315789,25.1522847 28.9838637,25.6 28.4315789,25.6 L24.9842105,25.6 C24.4319258,25.6 23.9842105,25.1522847 23.9842105,24.6 L23.984,23.979 L21.26,23.979 L21.2605263,24.6 C21.2605263,25.1522847 20.8128111,25.6 20.2605263,25.6 L16.8131579,25.6 C16.2608731,25.6 15.8131579,25.1522847 15.8131579,24.6 L15.813,23.979 L14.0894737,23.98 C13.5371889,23.98 13.0894737,23.5322847 13.0894737,22.98 L13.089,19.66 L13,19.66 C12.4477153,19.66 12,19.2122847 12,18.66 L12,10.94 C12,10.3877153 12.4477153,9.94 13,9.94 L13.089,9.94 L13.0894737,6.62 C13.0894737,6.06771525 13.5371889,5.62 14.0894737,5.62 L15.813,5.619 L15.8131579,4.54473684 C15.8131579,4.24388699 16.0570449,4 16.3578947,4 C16.6587446,4 16.9026316,4.24388699 16.9026316,4.54473684 L16.902,5.619 L19.989,5.619 L19.9894737,4.54473684 C19.9894737,4.24388699 20.2333607,4 20.5342105,4 C20.8350604,4 21.0789474,4.24388699 21.0789474,4.54473684 L21.078,5.619 L24.165,5.619 L24.1657895,4.54473684 C24.1657895,4.24388699 24.4096765,4 24.7105263,4 C25.0113762,4 25.2552632,4.24388699 25.2552632,4.54473684 L25.255,5.619 L28.342,5.619 L28.3421053,4.54473684 C28.3421053,4.24388699 28.5859923,4 28.8868421,4 Z M24.640328,10.3 L21.8213673,10.3 L19.2,15.25 L22.3433783,15.25 L20.8733139,20.2 L26.4,13.5522795 L22.9347793,13.5522795 L24.640328,10.3 Z M16.3578947,10.48 C16.0871299,10.48 15.8625049,10.6775485 15.8202876,10.9363777 L15.8131579,11.0247368 L15.8131579,19.1152632 C15.8131579,19.416113 16.0570449,19.66 16.3578947,19.66 C16.6286596,19.66 16.8532846,19.4624515 16.8955019,19.2036223 L16.9026316,19.1152632 L16.9026316,11.0247368 C16.9026316,10.723887 16.6587446,10.48 16.3578947,10.48 Z M28.8868421,10.48 C28.6160772,10.48 28.3914523,10.6775485 28.3492349,10.9363777 L28.3421053,11.0247368 L28.3421053,19.1152632 C28.3421053,19.416113 28.5859923,19.66 28.8868421,19.66 C29.157607,19.66 29.3822319,19.4624515 29.4244493,19.2036223 L29.4315789,19.1152632 L29.4315789,11.0247368 C29.4315789,10.723887 29.187692,10.48 28.8868421,10.48 Z" id="形状结合" fill="#4179CC"></path>
                <text id="负-载" font-family="SourceHanSansCN-Regular, Source Han Sans CN" font-size="10" font-weight="normal" letter-spacing="0.625" fill="#7F94B2">
                    <tspan x="10" y="39">负 载</tspan>
                </text>
            </g>
        </g>
    </g>
</svg>