<?xml version="1.0" encoding="UTF-8"?>
<svg width="26px" height="24px" viewBox="0 0 26 24" version="1.1" xmlns="http://www.w3.org/2000/svg" xmlns:xlink="http://www.w3.org/1999/xlink">
    <!-- Generator: Sketch 63.1 (92452) - https://sketch.com -->
    <title>告警记录</title>
    <desc>Created with Sketch.</desc>
    <g id="页面-1" stroke="none" stroke-width="1" fill="none" fill-rule="evenodd">
        <g id="首页1" transform="translate(-222.000000, -424.000000)">
            <g id="告警记录" transform="translate(222.000000, 423.000000)">
                <g>
                    <rect id="矩形" fill="#FFFFFF" opacity="0" x="0" y="0" width="26" height="26"></rect>
                    <path d="M17.6247788,1.73333333 C18.4116814,1.73333333 19.0490265,2.38351389 19.0490265,3.18626389 L19.0490265,3.18626389 L19.0490265,10.4485694 C18.6693805,10.2373194 18.1631858,10.3429444 17.9123894,10.7560556 L17.9123894,10.7560556 L14.1435398,16.8705694 L4.5120354,16.8705694 C4.2359292,16.8705694 4.01044248,17.1005972 4.01044248,17.3822639 C4.01044248,17.6639306 4.2359292,17.8939583 4.5120354,17.8939583 L4.5120354,17.8939583 L13.5130973,17.8939583 L9.73044248,24.0319444 L2.62761062,24.0319444 C1.84070796,24.0319444 1.20336283,23.3817639 1.20336283,22.5790139 L1.20336283,22.5790139 L1.20336283,18.7131389 L-5.15143483e-14,18.7131389 L-5.15143483e-14,16.0537361 L1.20336283,16.0537361 L1.20336283,14.0069583 L-5.15143483e-14,14.0069583 L-5.15143483e-14,11.3475556 L1.20336283,11.3475556 L1.20336283,9.50733333 L-5.15143483e-14,9.50733333 L-5.15143483e-14,6.84793056 L1.20106195,6.84793056 L1.20106195,3.18626389 C1.20106195,2.38351389 1.83840708,1.73333333 2.62530973,1.73333333 L2.62530973,1.73333333 Z M18.1309735,12.8380417 C18.379469,12.4272778 18.9615929,12.4155417 19.2261947,12.8169167 L19.2261947,12.8169167 L25.599646,22.9944722 C25.8895575,23.43575 25.5812389,24.0319444 25.0589381,24.0319444 L25.0589381,24.0319444 L12.4132743,24.0319444 C11.9024779,24.0319444 11.5895575,23.4592222 11.8587611,23.0155972 L11.8587611,23.0155972 Z M19.099646,20.2200556 L18.3702655,20.2200556 C17.9630088,20.2200556 17.6316814,20.5580556 17.6316814,20.9735139 L17.6316814,20.9735139 L17.6316814,21.513375 C17.6316814,21.9288333 17.9630088,22.2668333 18.3702655,22.2668333 L18.3702655,22.2668333 L19.099646,22.2668333 C19.5069027,22.2668333 19.8382301,21.9288333 19.8382301,21.513375 L19.8382301,21.513375 L19.8382301,20.9735139 C19.8382301,20.5580556 19.5069027,20.2200556 19.099646,20.2200556 L19.099646,20.2200556 Z M19.0651327,15.1054583 L18.4024779,15.1054583 C17.9745133,15.1054583 17.6293805,15.4598889 17.6293805,15.894125 L17.6293805,15.894125 L17.6293805,18.6145556 C17.6293805,19.0511389 17.9768142,19.4032222 18.4024779,19.4032222 L18.4024779,19.4032222 L19.0651327,19.4032222 C19.4930973,19.4032222 19.8382301,19.0487917 19.8382301,18.6145556 L19.8382301,18.6145556 L19.8382301,15.894125 C19.8382301,15.4575417 19.4907965,15.1054583 19.0651327,15.1054583 L19.0651327,15.1054583 Z M14.5369912,12.3709444 L4.5120354,12.3709444 C4.23362832,12.3709444 4.01044248,12.598625 4.01044248,12.8826389 C4.01044248,13.1643056 4.2359292,13.3943333 4.5120354,13.3943333 L4.5120354,13.3943333 L14.5369912,13.3943333 C14.8130973,13.3943333 15.0385841,13.1643056 15.0385841,12.8826389 C15.0385841,12.6009722 14.8130973,12.3709444 14.5369912,12.3709444 L14.5369912,12.3709444 Z M9.52566372,7.86897222 L4.5120354,7.86897222 C4.23362832,7.86897222 4.01044248,8.099 4.01044248,8.38066667 C4.01044248,8.66233333 4.2359292,8.89236111 4.5120354,8.89236111 L4.5120354,8.89236111 L9.52566372,8.89236111 C9.80176991,8.89236111 10.0272566,8.66233333 10.0272566,8.38066667 C10.0272566,8.099 9.80176991,7.86897222 9.52566372,7.86897222 L9.52566372,7.86897222 Z" id="形状结合" fill="#FF4470" fill-rule="nonzero"></path>
                </g>
            </g>
        </g>
    </g>
</svg>