<?xml version="1.0" encoding="UTF-8"?>
<svg width="40px" height="40px" viewBox="0 0 40 40" version="1.1" xmlns="http://www.w3.org/2000/svg" xmlns:xlink="http://www.w3.org/1999/xlink">
    <!-- Generator: Sketch 61.2 (89653) - https://sketch.com -->
    <title>头像</title>
    <desc>Created with Sketch.</desc>
    <g id="页面-1" stroke="none" stroke-width="1" fill="none" fill-rule="evenodd">
        <g id="首页" transform="translate(-268.000000, -31.000000)" fill-rule="nonzero">
            <g id="头像" transform="translate(268.000000, 31.000000)">
                <path d="M20,29.4726563 C25.1484375,29.4726563 29.78125,31.6757813 33.0078125,35.1914062 C37.2890625,31.5234375 40,26.078125 40,20 C40,8.953125 31.046875,0 20,0 C8.953125,0 0,8.953125 0,20 C0,26.078125 2.7109375,31.5234375 6.9921875,35.1914062 C10.21875,31.6757813 14.8515625,29.4726563 20,29.4726563 Z" id="路径" fill="#ECEDEF"></path>
                <path d="M23.1953125,29.7617188 L23.1953125,30.5429688 C23.1953125,32.3007812 21.7578125,33.7382812 20,33.7382812 C18.2421875,33.7382812 16.8046875,32.3007812 16.8046875,30.5429688 L16.8046875,29.7617188 C12.953125,30.4648438 9.53515625,32.421875 6.9921875,35.1914062 C10.4882812,38.1875 15.03125,40 20,40 C24.9648437,40 29.5117188,38.1875 33.0078125,35.1914062 C30.4648438,32.421875 27.046875,30.46875 23.1953125,29.7617188 Z" id="路径" fill="#57ABE4"></path>
                <path d="M20,33.7382812 C21.7578125,33.7382812 23.1953125,32.3007812 23.1953125,30.5429688 L23.1953125,29.7617188 C22.1601562,29.5703125 21.0898438,29.4726563 20,29.4726563 C18.9101562,29.4726563 17.8398437,29.5742188 16.8046875,29.7617188 L16.8046875,30.5429688 C16.8046875,32.3007812 18.2421875,33.7382812 20,33.7382812 L20,33.7382812 Z" id="路径" fill="#C6CBD5"></path>
                <path d="M28.5507812,23.453125 L11.4492188,23.453125 C10.890625,23.453125 10.4335938,22.9960938 10.4335938,22.4375 L10.4335938,9.34375 C10.4335938,8.78515625 10.890625,8.328125 11.4492188,8.328125 L28.546875,8.328125 C29.1054688,8.328125 29.5625249,8.78515625 29.5625249,9.34375 L29.5625249,22.4375 C29.5664062,22.9960938 29.109375,23.453125 28.5507812,23.453125 Z" id="路径" fill="#4197DF"></path>
                <path d="M8.8125,20.9296875 C8.8125,21.9470571 9.35526019,22.8871454 10.2363281,23.3958302 C11.117396,23.904515 12.2029165,23.904515 13.0839844,23.3958302 C13.9650523,22.8871454 14.5078125,21.9470571 14.5078125,20.9296875 C14.5078125,19.3569704 13.2328734,18.0820312 11.6601562,18.0820312 C10.0874391,18.0820312 8.8125,19.3569704 8.8125,20.9296875 Z M25.4921875,20.9296875 C25.4921875,22.5024046 26.7671266,23.7773438 28.3398438,23.7773438 C29.9125609,23.7773438 31.1875,22.5024046 31.1875,20.9296875 C31.1875,19.3569704 29.9125609,18.0820312 28.3398438,18.0820312 C26.7671266,18.0820312 25.4921875,19.3569704 25.4921875,20.9296875 L25.4921875,20.9296875 Z" id="形状" fill="#C6CBD5"></path>
                <path d="M23.7226562,12.0117188 C22.6992188,12.5390625 21.40625,12.8554688 20,12.8554688 C18.59375,12.8554688 17.3007812,12.5390625 16.2773438,12.0117188 C13.7382812,13.3007812 11.9882812,15.9375 11.9882812,18.96875 L11.9882812,22.2265625 C11.9882812,26.515625 15.4960938,30.0234375 19.7851562,30.0234375 L20.21875,30.0234375 C24.5078125,30.0234375 28.015625,26.515625 28.015625,22.2265625 L28.015625,18.96875 C28.015625,15.9375 26.2617188,13.3007812 23.7226562,12.0117188 L23.7226562,12.0117188 Z" id="路径" fill="#FFFFFF"></path>
                <path d="M13.5351563,22.2265625 L13.3085938,18.96875 C13.3085938,18.96875 13.0976563,16.609375 13.4570313,14.421875 C12.53125,15.703125 11.984375,17.2734375 11.984375,18.96875 L11.984375,22.2265625 C11.984375,26.515625 15.4921875,30.0234375 19.78125,30.0234375 L20.2148438,30.0234375 C20.4023438,30.0234375 20.5898438,30.015625 20.7734375,30 C16.7460938,29.7109375 13.5351562,26.3242188 13.5351562,22.2265625 L13.5351563,22.2265625 Z" id="路径" fill="#ECEDEF"></path>
                <path d="M25.7929688,9.515625 C25.7929688,11.2890625 23.1992188,12.7265625 20,12.7265625 C16.8007812,12.7265625 14.2070312,11.2890625 14.2070312,9.515625 C14.2070312,7.7421875 16.8007812,6.3046875 20,6.3046875 C21.5429688,6.3046875 25.7929688,5.5078125 25.7929688,5.5078125 L25.7929688,9.515625 L25.7929688,9.515625 Z" id="路径" fill="#4197DF"></path>
            </g>
        </g>
    </g>
</svg>