<?xml version="1.0" standalone="no"?><!DOCTYPE svg PUBLIC "-//W3C//DTD SVG 1.1//EN" "http://www.w3.org/Graphics/SVG/1.1/DTD/svg11.dtd"><svg t="1582262922782" class="icon" viewBox="0 0 1024 1024" version="1.1" xmlns="http://www.w3.org/2000/svg" p-id="9197" xmlns:xlink="http://www.w3.org/1999/xlink" width="128" height="128"><defs><style type="text/css"></style></defs><path d="M151.72093977 512.07921559c0-8.65733436 3.32568332-16.28529053 9.9786996-22.9119125l464.75104662-464.77579128c6.65301628-6.65301628 14.30571713-9.95065564 22.96305148-9.95065566s16.28529053 3.29928899 22.93665719 9.95065566l49.86050511 49.88524977c6.65301628 6.65301628 9.97704996 14.27932283 9.97704996 22.93665717 0 8.63258966-3.32568332 16.28529053-9.97704995 22.93665716l-391.95553398 391.95553398 391.95718362 391.93078932c6.65301628 6.65301628 9.97704996 14.27932283 9.97704995 22.93665718s-3.32568332 16.3100352-9.97869959 22.96305149l-49.85885548 49.85885545c-6.65301628 6.65301628-14.27932283 9.97704996-22.93665717 9.97704996s-16.3100352-3.32568332-22.96305149-9.9786996l-464.75104662-464.75269625c-6.64971699-6.64971699-9.9786996-14.30571713-9.9786996-22.9630515z" p-id="9198" fill="#cdcdcd"></path></svg>