<?xml version="1.0" encoding="UTF-8"?>
<svg width="196px" height="18px" viewBox="0 0 196 18" version="1.1" xmlns="http://www.w3.org/2000/svg" xmlns:xlink="http://www.w3.org/1999/xlink">
    <!-- Generator: Sketch 61.2 (89653) - https://sketch.com -->
    <title>编组 10</title>
    <desc>Created with Sketch.</desc>
    <defs>
        <polygon id="path-1" points="0 0 30.7416897 0 30.7416897 12.8436282 0 12.8436282"></polygon>
    </defs>
    <g id="页面-1" stroke="none" stroke-width="1" fill="none" fill-rule="evenodd">
        <g id="1-2综合监控_监控报警" transform="translate(-11.000000, -16.000000)">
            <g id="logo">
                <g id="编组-10" transform="translate(11.000000, 16.000000)">
                    <g id="编组备份-7">
                        <polygon id="Fill-1" fill="#FFFFFF" points="17.0908862 5 15 15 18.1818182 15 19.2727502 10.0467048 22.3637051 15 24.5455691 15 25 12.8504034 20.0909778 5"></polygon>
                        <polygon id="Fill-2" fill="#FFFFFF" points="23.7194942 4 23 7.34579613 25.4812024 11 27 4"></polygon>
                        <polygon id="Fill-3" fill="#FFFFFF" points="27.5516682 5 27 7.42994287 28.0115462 11.4485541 27.3677402 15 30.1264288 15 30.6782129 11.7289004 35 5 32.0573833 5 30.1264288 8.45791861 29.1148826 5"></polygon>
                        <polygon id="Fill-4" fill="#FFFFFF" points="33 15 35.9524353 15 36.6190019 11.8224277 41 5 37.8571857 5 35.8571257 8.45791861 35.190439 5.56069262 33 8.83179221 33.6666867 11.5420814"></polygon>
                        <g id="编组">
                            <path d="M50.4669039,5.15642013 C50.9143649,5.74123893 51.1770553,6.36568188 51.2302984,7.02419195 C51.6174658,11.8088094 40.8589521,16.5720443 27.2008764,17.6632792 C25.5131424,17.798098 23.8602961,17.8703396 22.2583833,17.8847154 C23.6397869,17.9602188 25.0560782,17.9999638 26.4999635,17.9999638 C41.1355002,17.9999638 52.9999635,13.9705007 52.9999635,8.99996376 C52.9999635,7.62495705 52.0904544,6.32207114 50.4669039,5.15642013" id="Fill-5" fill="#FFFFFF"></path>
                            <g>
                                <mask id="mask-2" fill="white">
                                    <use xlink:href="#path-1"></use>
                                </mask>
                                <g id="Clip-8"></g>
                                <path d="M25.7991966,0.336769128 C27.4869305,0.201950336 29.1397768,0.129708725 30.7416897,0.115332886 C29.3604076,0.0398295302 27.9439947,-3.62416107e-05 26.4999878,-3.62416107e-05 C11.8644511,-3.62416107e-05 -1.21559633e-05,4.02942685 -1.21559633e-05,8.99996376 C-1.21559633e-05,10.3750913 0.909497018,11.6778564 2.53316904,12.8436282 C2.08570803,12.2588094 1.8228961,11.6343664 1.76965298,10.9757356 C1.38260711,6.19111812 12.1411209,1.42788322 25.7991966,0.336769128" id="Fill-7" fill="#FFFFFF" mask="url(#mask-2)"></path>
                            </g>
                        </g>
                    </g>
                    <g id="编组-2" transform="translate(61.000000, 1.000000)" fill="#FFFFFF" font-family="SourceHanSans-Bold, Source Han Sans" font-size="16" font-weight="bold" letter-spacing="1">
                        <text id="远程运维管理系统">
                            <tspan x="0" y="14">远程运维管理系统</tspan>
                        </text>
                    </g>
                </g>
            </g>
        </g>
    </g>
</svg>