<?xml version="1.0" encoding="UTF-8"?>
<svg width="26px" height="26px" viewBox="0 0 26 26" version="1.1" xmlns="http://www.w3.org/2000/svg" xmlns:xlink="http://www.w3.org/1999/xlink">
    <!-- Generator: Sketch 63.1 (92452) - https://sketch.com -->
    <title>历史曲线</title>
    <desc>Created with Sketch.</desc>
    <g id="页面-1" stroke="none" stroke-width="1" fill="none" fill-rule="evenodd">
        <g id="首页1" transform="translate(-222.000000, -333.000000)" fill="#2AEE7D" fill-rule="nonzero">
            <g id="历史曲线" transform="translate(222.000000, 333.000000)">
                <path d="M21.7042478,0.0621238938 L4.09787611,0.0621238938 C1.84300885,0.0621238938 0.0161061947,1.88902655 0.0161061947,4.14389381 L0.0161061947,21.7502655 C0.0161061947,24.0051327 1.84300885,25.8320354 4.09787611,25.8320354 L21.7042478,25.8320354 C23.959115,25.8320354 25.7860177,24.0051327 25.7860177,21.7502655 L25.7860177,4.14389381 C25.7860177,1.88902655 23.9568142,0.0621238938 21.7042478,0.0621238938 Z M22.6084956,13.1679646 L17.5465487,17.7697345 C17.3716814,17.9284956 17.1484956,18.0090265 16.9276106,18.0090265 C16.6952212,18.0090265 16.4651327,17.9215929 16.2856637,17.7490265 L8.40513274,10.0824779 L4.44530973,13.8444248 C4.07716814,14.1941593 3.49504425,14.180354 3.14300885,13.8099115 C2.79327434,13.4417699 2.80707965,12.859646 3.17752212,12.5076106 L7.77929204,8.1359292 C8.13823009,7.79539823 8.7019469,7.8 9.0539823,8.14283186 L16.9460177,15.8231858 L21.3683186,11.8035398 C21.7433628,11.460708 22.3254867,11.4906195 22.6683186,11.8656637 C23.0111504,12.2430088 22.9835398,12.8251327 22.6084956,13.1679646 Z" id="形状"></path>
            </g>
        </g>
    </g>
</svg>