<?xml version="1.0" encoding="UTF-8"?>
<svg width="338px" height="220px" viewBox="0 0 338 220" version="1.1" xmlns="http://www.w3.org/2000/svg" xmlns:xlink="http://www.w3.org/1999/xlink">
    <title>bg</title>
    <g id="页面-1" stroke="none" stroke-width="1" fill="none" fill-rule="evenodd">
        <g id="工单管理2" transform="translate(-19.000000, -83.000000)" fill="#112957">
            <path d="M357,83 L357,118 C352.19717,118 348.27302,121.762077 348.013647,126.500135 L344.5,126.5 L344.5,128.5 L348.124562,128.500742 C348.838985,132.756947 352.540765,136 357,136 L357,303 L19,303 L19,136 L19,136 C23.4592352,136 27.1610149,132.756947 27.8754378,128.500742 L31.5,128.5 L31.5,126.5 L27.9863532,126.500135 C27.7269796,121.762077 23.8028299,118 19,118 L19,83 L357,83 Z M51.5,126.5 L44.5,126.5 L44.5,128.5 L51.5,128.5 L51.5,126.5 Z M61.5,126.5 L54.5,126.5 L54.5,128.5 L61.5,128.5 L61.5,126.5 Z M71.5,126.5 L64.5,126.5 L64.5,128.5 L71.5,128.5 L71.5,126.5 Z M81.5,126.5 L74.5,126.5 L74.5,128.5 L81.5,128.5 L81.5,126.5 Z M91.5,126.5 L84.5,126.5 L84.5,128.5 L91.5,128.5 L91.5,126.5 Z M101.5,126.5 L94.5,126.5 L94.5,128.5 L101.5,128.5 L101.5,126.5 Z M111.5,126.5 L104.5,126.5 L104.5,128.5 L111.5,128.5 L111.5,126.5 Z M121.5,126.5 L114.5,126.5 L114.5,128.5 L121.5,128.5 L121.5,126.5 Z M131.5,126.5 L124.5,126.5 L124.5,128.5 L131.5,128.5 L131.5,126.5 Z M141.5,126.5 L134.5,126.5 L134.5,128.5 L141.5,128.5 L141.5,126.5 Z M151.5,126.5 L144.5,126.5 L144.5,128.5 L151.5,128.5 L151.5,126.5 Z M161.5,126.5 L154.5,126.5 L154.5,128.5 L161.5,128.5 L161.5,126.5 Z M171.5,126.5 L164.5,126.5 L164.5,128.5 L171.5,128.5 L171.5,126.5 Z M181.5,126.5 L174.5,126.5 L174.5,128.5 L181.5,128.5 L181.5,126.5 Z M41.5,126.5 L34.5,126.5 L34.5,128.5 L41.5,128.5 L41.5,126.5 Z M211.5,126.5 L204.5,126.5 L204.5,128.5 L211.5,128.5 L211.5,126.5 Z M221.5,126.5 L214.5,126.5 L214.5,128.5 L221.5,128.5 L221.5,126.5 Z M231.5,126.5 L224.5,126.5 L224.5,128.5 L231.5,128.5 L231.5,126.5 Z M241.5,126.5 L234.5,126.5 L234.5,128.5 L241.5,128.5 L241.5,126.5 Z M251.5,126.5 L244.5,126.5 L244.5,128.5 L251.5,128.5 L251.5,126.5 Z M261.5,126.5 L254.5,126.5 L254.5,128.5 L261.5,128.5 L261.5,126.5 Z M271.5,126.5 L264.5,126.5 L264.5,128.5 L271.5,128.5 L271.5,126.5 Z M281.5,126.5 L274.5,126.5 L274.5,128.5 L281.5,128.5 L281.5,126.5 Z M291.5,126.5 L284.5,126.5 L284.5,128.5 L291.5,128.5 L291.5,126.5 Z M301.5,126.5 L294.5,126.5 L294.5,128.5 L301.5,128.5 L301.5,126.5 Z M311.5,126.5 L304.5,126.5 L304.5,128.5 L311.5,128.5 L311.5,126.5 Z M321.5,126.5 L314.5,126.5 L314.5,128.5 L321.5,128.5 L321.5,126.5 Z M331.5,126.5 L324.5,126.5 L324.5,128.5 L331.5,128.5 L331.5,126.5 Z M341.5,126.5 L334.5,126.5 L334.5,128.5 L341.5,128.5 L341.5,126.5 Z M191.5,126.5 L184.5,126.5 L184.5,128.5 L191.5,128.5 L191.5,126.5 Z M201.5,126.5 L194.5,126.5 L194.5,128.5 L201.5,128.5 L201.5,126.5 Z" id="bg"></path>
        </g>
    </g>
</svg>