<?xml version="1.0" standalone="no"?><!DOCTYPE svg PUBLIC "-//W3C//DTD SVG 1.1//EN" "http://www.w3.org/Graphics/SVG/1.1/DTD/svg11.dtd"><svg t="1582191861043" class="icon" viewBox="0 0 1024 1024" version="1.1" xmlns="http://www.w3.org/2000/svg" p-id="5357" width="64" height="64" xmlns:xlink="http://www.w3.org/1999/xlink"><defs><style type="text/css"></style></defs><path d="M511.498 512c18.144 0 33.434-4.63 45.862-13.896 12.432-9.27 18.64-20.414 18.64-33.432L576 112.074c0-13.024-6.208-24.29-18.64-33.804-12.434-9.518-27.716-14.27-45.862-14.27-17.472 0-32.426 4.752-44.856 14.27-12.432 9.516-18.642 20.782-18.642 33.804l0 352.598c0 13.016 6.21 24.162 18.642 33.432C479.072 507.368 494.028 512 511.498 512zM948.868 402.306c-8.714-35.188-21.456-68.536-38.208-100.044-16.756-31.5-36.866-60.824-60.324-87.97-23.462-27.144-50.28-51.448-80.438-72.896-81.418 2.83-72.648 62.362-58.444 90.706 91.544 63.3 151.54 168.996 151.54 288.716 0 193.734-157.052 350.79-350.786 350.79-193.738 0-350.788-157.054-350.788-350.79 0-115.358 55.692-217.704 141.65-281.638 11.788-27.692 16.338-90.556-59.018-90.744-28.156 21.452-53.628 45.58-76.414 72.394-22.79 26.808-41.892 55.63-57.316 86.464-15.414 30.836-27.312 63.34-35.696 97.524-8.378 34.186-12.562 69.044-12.562 104.566 0 62.346 11.728 120.824 35.194 175.458 23.454 54.622 55.628 102.214 96.518 142.766 40.888 40.56 88.644 72.728 143.278 96.524 54.632 23.796 112.778 35.7 174.45 35.7 62.33 0 120.818-11.9 175.44-35.7 54.632-23.794 102.218-55.962 142.782-96.524 40.55-40.542 72.722-88.138 96.518-142.766 23.8-54.632 35.694-113.112 35.694-175.454C961.936 473.186 957.576 437.5 948.868 402.306z" p-id="5358" fill="#ffffff"></path></svg>