<?xml version="1.0" encoding="UTF-8"?>
<svg width="45px" height="45px" viewBox="0 0 45 45" version="1.1" xmlns="http://www.w3.org/2000/svg" xmlns:xlink="http://www.w3.org/1999/xlink">
    <title>变流器</title>
    <g id="页面-1" stroke="none" stroke-width="1" fill="none" fill-rule="evenodd">
        <g id="变流器">
            <rect id="矩形备份-15" stroke="#133A6E" fill="#082955" x="0.5" y="0.5" width="44" height="44" rx="2"></rect>
            <path d="M29,6 L29,28 L20.84,27.5362813 L20.84,6.46371875 L29,6 Z M31.6484375,4.41918945 L31.6484375,26.0740253 L29.6484375,27.9902344 L29.6484375,5.82477551 L31.6484375,4.41918945 Z M20.16,6.50236198 L20.16,27.497638 L12,27.0339193 L12,6.96608073 L20.16,6.50236198 Z M22.88,24.8116214 L22.88,26.2319161 L27.64,26.4663517 L27.64,25.0099899 L22.88,24.8116214 Z M13.36,24.4148842 L13.36,25.763045 L18.12,25.9974806 L18.12,24.6132528 L13.36,24.4148842 Z M27.64,14.0872764 L22.88,14.1594104 L22.88,21.2608844 L27.64,21.3690854 L27.64,14.0872764 Z M13.36,17.6740804 L13.36,21.0444823 L18.12,21.1526833 L18.12,17.6921139 L13.36,17.6740804 Z M22.2,17 L21.52,17 L21.52,19.1149849 L22.2,19.1227135 L22.2,17 Z M18.12,14.2315444 L13.36,14.3036785 L13.36,17 L18.12,17 L18.12,16.1397024 L16.77224,16.1460493 L16.7722852,16.6660564 L14.7322852,16.6698132 L14.7322852,14.6319751 L16.7722852,14.6050324 L16.77224,15.1155375 L18.12,15.1015316 L18.12,14.2315444 Z M18.12,9.38674722 L13.36,9.5851158 L13.36,13.6295981 L18.12,13.5394306 L18.12,9.38674722 Z M27.64,8.99001007 L22.88,9.18837865 L22.88,13.449263 L27.64,13.3590955 L27.64,8.99001007 Z M14.4085547,7.84628604 C14.2207779,7.85588997 14.0685547,8.01517445 14.0685547,8.20205788 C14.0685547,8.38894132 14.2207779,8.53323146 14.4085547,8.52433893 C14.5963315,8.5154464 14.7485547,8.35616192 14.7485547,8.16856709 C14.7485547,7.98097225 14.5963315,7.83668211 14.4085547,7.84628604 Z M15.7685547,7.77672823 C15.5807779,7.78633216 15.4285547,7.94677005 15.4285547,8.13507629 C15.4285547,8.32338252 15.5807779,8.46882607 15.7685547,8.45993355 C15.9563315,8.45104102 16.1085547,8.29060313 16.1085547,8.10158549 C16.1085547,7.91256785 15.9563315,7.7671243 15.7685547,7.77672823 Z M17.1285547,7.70717042 C16.9407779,7.71677435 16.7885547,7.87836565 16.7885547,8.06809469 C16.7885547,8.25782373 16.9407779,8.40442069 17.1285547,8.39552816 C17.3163315,8.38663564 17.4685547,8.22504434 17.4685547,8.03460389 C17.4685547,7.84416345 17.3163315,7.69756649 17.1285547,7.70717042 Z M31.0505371,4.13061523 L29.074707,5.49536133 L12.0893555,6.4152832 L14.9041703,5.20951341 L31.0505371,4.13061523 Z" id="形状结合" fill="#4179CC"></path>
            <text font-family="SourceHanSansCN-Regular, Source Han Sans CN" font-size="10" font-weight="normal" letter-spacing="0.625" fill="#7F94B2">
                <tspan x="6" y="39">变流器</tspan>
            </text>
        </g>
    </g>
</svg>