<?xml version="1.0" encoding="UTF-8"?>
<svg width="26px" height="26px" viewBox="0 0 26 26" version="1.1" xmlns="http://www.w3.org/2000/svg" xmlns:xlink="http://www.w3.org/1999/xlink">
    <title>设备信息</title>
    <g id="页面-1" stroke="none" stroke-width="1" fill="none" fill-rule="evenodd">
        <g id="首页1" transform="translate(-222.000000, -603.000000)" fill="#AA58FF" fill-rule="nonzero">
            <g id="设备信息" transform="translate(222.000000, 603.000000)">
                <path d="M20.4302889,25.081189 C18.9213704,25.081189 17.6981502,23.8579688 17.6981502,22.3490502 L17.6981502,2.75571219 C17.6981502,2.03119253 17.9860304,1.33636139 18.4984335,0.824139001 C19.0108367,0.311916615 19.7057693,0.0242815064 20.4302889,0.0245369852 L23.1537543,0.0245369852 C23.8782739,0.0242815064 24.5732066,0.311916615 25.0856097,0.824139001 C25.5980128,1.33636139 25.8858958,2.03119253 25.8858958,2.75571219 L25.8858958,22.3451954 C25.8869164,23.0704713 25.5995187,23.7663922 25.0870323,24.2796017 C24.5745459,24.7928111 23.8790309,25.081189 23.1537543,25.081189 L20.4302889,25.081189 Z M21.5539834,3.43609666 C20.7935293,3.57377898 20.2859089,4.29832612 20.4162156,5.06007877 C20.5465224,5.82183142 21.2661165,6.3364491 22.0290961,6.21353015 C22.795797,6.08233141 23.3109734,5.35443989 23.1797746,4.58773894 C23.0485759,3.82103798 22.3206844,3.30586165 21.5539834,3.43706039 L21.5539834,3.43609666 Z M2.75667592,25.081189 C2.03139928,25.081189 1.33588426,24.7928111 0.823397894,24.2796017 C0.310911529,23.7663922 0.0235138386,23.0704713 0.024534432,22.3451954 L0.024534432,2.75571219 C0.024534432,2.03119253 0.31241738,1.33636139 0.82482051,0.824139001 C1.33722364,0.311916615 2.0321563,0.0242815064 2.75667592,0.0245369851 L13.0886899,0.0245369851 C13.8132096,0.0242814997 14.5081422,0.311916605 15.0205454,0.824138992 C15.5329485,1.33636138 15.8208315,2.03119253 15.8208315,2.75571219 L15.8208315,22.3451954 C15.821852,23.0704713 15.5344544,23.7663922 15.021968,24.2796017 C14.5094816,24.7928111 13.8139666,25.081189 13.0886899,25.081189 L2.75667592,25.081189 Z M4.66676377,3.43127809 C3.91690129,3.58113622 3.42318754,4.30142951 3.55390154,5.054865 C3.68461554,5.80830049 4.39210263,6.32019668 5.14862247,6.20871158 C5.91532343,6.07564998 6.42898962,5.3462483 6.29592801,4.57954734 C6.16286641,3.81284638 5.43346473,3.29918019 4.66676377,3.4322418 L4.66676377,3.43127809 Z M8.47922973,3.43127809 C7.9790546,3.51185823 7.56065003,3.85476994 7.38340934,4.32937932 C7.20616865,4.8039887 7.29738334,5.33721539 7.62230474,5.72592404 C7.94722614,6.11463268 8.45582284,6.29896993 8.9543424,6.20871158 C9.46097775,6.135108 9.88782094,5.79248155 10.0692695,5.31376109 C10.2507181,4.83504063 10.1582156,4.29556748 9.8276502,3.90464116 C9.49708481,3.51371483 8.98048114,3.33285956 8.478266,3.4322418 L8.47922973,3.43127809 Z" id="形状"></path>
            </g>
        </g>
    </g>
</svg>