<?xml version="1.0" encoding="UTF-8"?>
<svg width="26px" height="26px" viewBox="0 0 26 26" version="1.1" xmlns="http://www.w3.org/2000/svg" xmlns:xlink="http://www.w3.org/1999/xlink">
    <!-- Generator: Sketch 63.1 (92452) - https://sketch.com -->
    <title>数据统计</title>
    <desc>Created with Sketch.</desc>
    <g id="页面-1" stroke="none" stroke-width="1" fill="none" fill-rule="evenodd">
        <g id="首页1" transform="translate(-222.000000, -513.000000)" fill="#3C82AF" fill-rule="nonzero">
            <g id="数据统计" transform="translate(222.000000, 513.000000)">
                <path d="M23.5980219,9.30895613 C24.6983571,9.30895613 25.5912306,10.1720671 25.5912306,11.2357246 L25.5912306,24.0732316 C25.5912306,25.136889 24.6983572,26 23.5980219,26 L20.9430364,26 C19.8427012,26 18.9498277,25.136889 18.9498277,24.0732316 L18.9498277,11.233186 C18.9498277,10.1695286 19.8427012,9.30641758 20.9430364,9.30641758 L23.5980219,9.30641758 L23.5980219,9.30895613 Z M5.00524513,11.8754421 C6.10558036,11.8754421 6.99845384,12.7385531 6.99845384,13.8022105 L6.99845384,24.070693 C6.99845384,25.1343504 6.10558039,25.9974614 5.00524513,25.9974614 L2.35025964,25.9974614 C1.24992442,25.9974614 0.357050936,25.1343504 0.357050936,24.070693 L0.357050936,13.799672 C0.357050936,12.7360146 1.24992439,11.8729036 2.35025964,11.8729036 L5.00524513,11.8729036 L5.00524513,11.8754421 Z M14.3016335,14.4419281 C15.4019688,14.4419281 16.2948422,15.3050391 16.2948422,16.3686965 L16.2948422,24.070693 C16.2948422,25.1343504 15.4019688,25.9974614 14.3016335,25.9974614 L11.646648,25.9974614 C10.5463128,25.9974614 9.65343933,25.1343504 9.65343933,24.070693 L9.65343933,16.3686965 C9.65343933,15.3050391 10.5463128,14.4419281 11.646648,14.4419281 L14.3016335,14.4419281 L14.3016335,14.4419281 Z" id="形状"></path>
                <path d="M21.1767592,1.94204979 L19.6089784,1.95220403 C19.0601239,1.95474259 18.6110611,1.52826421 18.6058089,0.995166225 C18.6005566,0.467145377 19.0443673,0.0330513066 19.5932218,0.0279741973 L23.5901436,-8.33898589e-08 C23.8475013,-0.00248853516 24.1048589,0.0914382422 24.3018163,0.281830377 C24.398982,0.375757154 24.4725127,0.484915311 24.5197825,0.599150602 C24.5644262,0.700693068 24.5933132,0.827621158 24.5933132,0.962164937 L24.5933132,4.83093312 C24.5933132,5.36149255 24.1468765,5.79304804 23.5980219,5.79304804 C23.0491673,5.79304804 22.6027306,5.36149253 22.6027306,4.83093312 L22.6027306,3.28748756 L13.6792482,11.9135206 C13.3877513,12.1953009 12.9465668,12.2739963 12.5710347,12.1115284 L0.617034686,6.97855641 C0.115449876,6.76277865 -0.113020676,6.1941408 0.110197694,5.70673695 C0.333416064,5.22187164 0.921662115,5.00101677 1.42587299,5.21679453 L12.7522355,10.0832175 L21.1767592,1.94204979 Z" id="路径"></path>
            </g>
        </g>
    </g>
</svg>