<?xml version="1.0" encoding="UTF-8"?>
<svg width="26px" height="26px" viewBox="0 0 26 26" version="1.1" xmlns="http://www.w3.org/2000/svg" xmlns:xlink="http://www.w3.org/1999/xlink">
    <!-- Generator: Sketch 63.1 (92452) - https://sketch.com -->
    <title>视频监控</title>
    <desc>Created with Sketch.</desc>
    <g id="页面-1" stroke="none" stroke-width="1" fill="none" fill-rule="evenodd">
        <g id="首页1" transform="translate(-44.000000, -513.000000)" fill="#17E2A3" fill-rule="nonzero">
            <g id="视频监控" transform="translate(44.000000, 513.000000)">
                <path d="M17.4038938,11.5757522 C17.4038938,9.16212389 15.4458407,7.2040708 13.0322124,7.2040708 C10.6185841,7.2040708 8.66053097,9.16212389 8.66053097,11.5757522 C8.66053097,13.9893805 10.6185841,15.9474336 13.0322124,15.9474336 C15.4458407,15.9474336 17.4038938,13.9893805 17.4038938,11.5757522 Z M13.0322124,14.219469 C11.5711504,14.219469 10.3861947,13.0345133 10.3861947,11.5734513 C10.3861947,11.1063717 10.5081416,10.6669027 10.719823,10.2872566 C10.9729204,10.5817699 11.3479646,10.7681416 11.7667257,10.7681416 C12.5283186,10.7681416 13.1472566,10.1492035 13.1472566,9.38761062 C13.1472566,9.22654867 13.1173451,9.07238938 13.0667257,8.92973451 C14.5116814,8.94814159 15.6782301,10.1238938 15.6782301,11.5734513 C15.6782301,13.0345133 14.4932743,14.219469 13.0322124,14.219469 Z" id="形状"></path>
                <path d="M20.620531,0.0414159292 L5.44389381,0.0414159292 C2.51946903,0.0414159292 0.147256637,2.41362832 0.147256637,5.3380531 L0.147256637,20.5146903 C0.147256637,23.439115 2.51946903,25.8113274 5.44389381,25.8113274 L20.620531,25.8113274 C23.5449558,25.8113274 25.9171681,23.439115 25.9171681,20.5146903 L25.9171681,5.3380531 C25.9171681,2.41362832 23.5449558,0.0414159292 20.620531,0.0414159292 Z M17.2888496,19.3389381 C17.7973451,19.3389381 18.2092035,19.7507965 18.2092035,20.259292 C18.2092035,20.7677876 17.7973451,21.179646 17.2888496,21.179646 L8.77557522,21.179646 C8.26707965,21.179646 7.85522124,20.7677876 7.85522124,20.259292 C7.85522124,19.7507965 8.26707965,19.3389381 8.77557522,19.3389381 L12.2269027,19.3389381 L12.2269027,18.4300885 C8.7939823,18.0320354 6.12955752,15.1145133 6.12955752,11.5757522 C6.12955752,7.76318584 9.21964602,4.67309735 13.0322124,4.67309735 C16.8447788,4.67309735 19.9348673,7.76318584 19.9348673,11.5757522 C19.9348673,15.1145133 17.2704425,18.0320354 13.8375221,18.4300885 L13.8375221,19.3412389 L17.2888496,19.3412389 L17.2888496,19.3389381 Z" id="形状"></path>
            </g>
        </g>
    </g>
</svg>