<?xml version="1.0" encoding="UTF-8"?>
<svg width="26px" height="26px" viewBox="0 0 26 26" version="1.1" xmlns="http://www.w3.org/2000/svg" xmlns:xlink="http://www.w3.org/1999/xlink">
    <title>项目管理</title>
    <g id="页面-1" stroke="none" stroke-width="1" fill="none" fill-rule="evenodd">
        <g id="首页1" transform="translate(-214.000000, -603.000000)">
            <g id="项目管理" transform="translate(214.000000, 603.000000)">
                <rect id="矩形" fill="#D8D8D8" opacity="0" x="0" y="0" width="26" height="26"></rect>
                <path d="M20.0055556,13.0024306 L11.3388889,13.0024306 C10.6166667,13.0024306 10.0388889,12.4246528 10.0388889,11.7024306 C10.0388889,10.9802083 10.6166667,10.4024306 11.3388889,10.4024306 L20.0055556,10.4024306 C20.7277778,10.4024306 21.3055556,10.9802083 21.3055556,11.7024306 C21.3055556,12.4246528 20.7277778,13.0024306 20.0055556,13.0024306 Z M5.2,16.8302083 C5.2,17.6246528 5.77777778,18.2024306 6.57222222,18.2024306 C7.36666667,18.2024306 7.94444444,17.5524306 7.94444444,16.8302083 C7.94444444,16.1079861 7.36666667,15.4579861 6.57222222,15.4579861 C5.77777778,15.4579861 5.2,16.0357639 5.2,16.8302083 L5.2,16.8302083 Z M5.2,11.7024306 C5.2,12.496875 5.77777778,13.0746528 6.57222222,13.0746528 C7.36666667,13.0746528 7.94444444,12.4246528 7.94444444,11.7024306 C7.94444444,10.9802083 7.36666667,10.3302083 6.57222222,10.3302083 C5.77777778,10.3302083 5.2,10.9802083 5.2,11.7024306 L5.2,11.7024306 Z M20.0055556,18.1302083 L11.3388889,18.1302083 C10.6166667,18.1302083 10.0388889,17.5524306 10.0388889,16.8302083 C10.0388889,16.1079861 10.6166667,15.5302083 11.3388889,15.5302083 L20.0055556,15.5302083 C20.7277778,15.5302083 21.3055556,16.1079861 21.3055556,16.8302083 C21.3055556,17.5524306 20.7277778,18.1302083 20.0055556,18.1302083 Z M25.9277778,22.3190972 L25.9277778,6.06909722 C25.9277778,4.11909722 24.1222222,4.26354167 24.1222222,4.26354167 L13.9388889,4.26354167 C13.3611111,4.26354167 13,3.97465278 13,3.97465278 C13,3.97465278 12.5666667,3.25243056 11.7722222,2.096875 C11.05,0.796875 10.1111111,1.01354167 10.1111111,1.01354167 L2.23888889,1.01354167 C0,1.01354167 0,3.10798611 0,3.10798611 L0,22.1746528 C0,24.5579861 1.80555556,24.2690972 1.80555556,24.2690972 L24.3388889,24.2690972 C26.2166667,24.2690972 25.9277778,22.3190972 25.9277778,22.3190972 L25.9277778,22.3190972 Z" id="形状" fill="#7E9DFF" fill-rule="nonzero"></path>
            </g>
        </g>
    </g>
</svg>