<?xml version="1.0" encoding="UTF-8"?>
<svg width="23px" height="26px" viewBox="0 0 23 26" version="1.1" xmlns="http://www.w3.org/2000/svg" xmlns:xlink="http://www.w3.org/1999/xlink">
    <!-- Generator: Sketch 63.1 (92452) - https://sketch.com -->
    <title>运维工单</title>
    <desc>Created with Sketch.</desc>
    <g id="页面-1" stroke="none" stroke-width="1" fill="none" fill-rule="evenodd">
        <g id="首页1" transform="translate(-46.000000, -423.000000)">
            <g id="运维工单" transform="translate(44.000000, 423.000000)">
                <rect id="矩形" fill="#D8D8D8" opacity="0" x="0" y="0" width="26" height="26"></rect>
                <path d="M15.213678,0 L15.213678,5.99857143 C15.213678,7.30089286 16.2671331,8.35714286 17.5660085,8.35714286 L17.5660085,8.35714286 L24.0117647,8.35714286 L24.0117647,23.0285714 C24.0117647,24.6698214 22.6851058,26 21.0481987,26 L21.0481987,26 L5.56356605,26 C3.92665886,26 2.6,24.6698214 2.6,23.0285714 L2.6,23.0285714 L2.6,2.97142857 C2.6,1.33017857 3.92665886,0 5.56356605,0 L5.56356605,0 L15.213678,0 Z M14.9034297,19.8482143 L6.26046713,19.8482143 C6.08913597,19.8482143 5.95021881,19.9851786 5.95021881,20.1569643 L5.95021881,20.1569643 L5.95021881,21.1621429 C5.95021881,21.3339286 6.08913597,21.4732143 6.26046713,21.4732143 L6.26046713,21.4732143 L14.9034297,21.4732143 C15.0747608,21.4732143 15.213678,21.3339286 15.213678,21.1621429 L15.213678,21.1621429 L15.213678,20.1569643 C15.213678,19.9875 15.0747608,19.8482143 14.9034297,19.8482143 L14.9034297,19.8482143 Z M19.0709444,15.6696429 L6.26046713,15.6696429 C6.08913597,15.6696429 5.95021881,15.8066071 5.95021881,15.9783929 L5.95021881,15.9783929 L5.95021881,16.9835714 C5.95021881,17.1553571 6.08913597,17.2946429 6.26046713,17.2946429 L6.26046713,17.2946429 L19.0709444,17.2946429 C19.2422756,17.2946429 19.3811928,17.1553571 19.3811928,16.9835714 L19.3811928,16.9835714 L19.3811928,15.9783929 C19.3811928,15.8089286 19.2422756,15.6696429 19.0709444,15.6696429 L19.0709444,15.6696429 Z M19.0709444,11.4910714 L6.26046713,11.4910714 C6.08913597,11.4910714 5.95021881,11.6280357 5.95021881,11.7998214 L5.95021881,11.7998214 L5.95021881,12.805 C5.95021881,12.9767857 6.08913597,13.1160714 6.26046713,13.1160714 L6.26046713,13.1160714 L19.0709444,13.1160714 C19.2422756,13.1160714 19.3811928,12.9767857 19.3811928,12.805 L19.3811928,12.805 L19.3811928,11.7998214 C19.3811928,11.6303571 19.2422756,11.4910714 19.0709444,11.4910714 L19.0709444,11.4910714 Z M16.3647059,0 L24.0117647,7.1372549 L17.9036765,7.1372549 C17.0529412,7.1372549 16.3647059,6.45207843 16.3647059,5.60512418 L16.3647059,5.60512418 L16.3647059,0 Z" id="形状结合" fill="#FF8B45" fill-rule="nonzero"></path>
            </g>
        </g>
    </g>
</svg>