<?xml version="1.0" encoding="UTF-8"?>
<svg width="25px" height="26px" viewBox="0 0 25 26" version="1.1" xmlns="http://www.w3.org/2000/svg" xmlns:xlink="http://www.w3.org/1999/xlink">
    <title>资产管理</title>
    <g id="页面-1" stroke="none" stroke-width="1" fill="none" fill-rule="evenodd">
        <g id="首页1" transform="translate(-222.000000, -693.000000)" fill="#DEE05F" fill-rule="nonzero">
            <g id="资产管理" transform="translate(222.000000, 693.000000)">
                <path d="M19.5,15 C16.4624339,15 14,17.4624339 14,20.5 C14,23.5375661 16.4624339,26 19.5,26 C22.5375661,26 25,23.5375661 25,20.5 C25,19.0413093 24.4205374,17.6423628 23.3890873,16.6109127 C22.3576372,15.5794626 20.9586907,15 19.5,15 L19.5,15 Z M21.32875,21.00875 C21.7053741,21.0160651 22.0089349,21.3196259 22.01625,21.69625 C22.01625,21.8785863 21.9438172,22.0534547 21.8148859,22.1823859 C21.6859546,22.3113172 21.5110863,22.38375 21.32875,22.38375 L20.1875,22.38375 L20.1875,22.98875 C20.1875,23.3684458 19.8796958,23.67625 19.5,23.67625 C19.1203042,23.67625 18.8125,23.3684458 18.8125,22.98875 L18.8125,22.38375 L17.685,22.38375 C17.3053042,22.38375 16.9975,22.0759458 16.9975,21.69625 C16.9975,21.5139137 17.0699328,21.3390453 17.1988641,21.2101141 C17.3277953,21.0811828 17.5026636,21.00875 17.685,21.00875 L18.8125,21.00875 L18.8125,20.83 L17.685,20.83 C17.3053042,20.83 16.9975,20.5221958 16.9975,20.1425 C16.9975,19.7628042 17.3053042,19.455 17.685,19.455 L17.96,19.455 L17.2175,18.56125 C16.9744947,18.2650873 17.0175873,17.8280053 17.31375,17.585 C17.6099127,17.3419947 18.0469947,17.3850873 18.29,17.68125 L19.5,19.18 L20.71,17.68125 C20.9590652,17.3932953 21.3923936,17.356676 21.68625,17.59875 C21.8270473,17.7139969 21.9152469,17.8812905 21.9307856,18.0625755 C21.9463243,18.2438606 21.887881,18.4237235 21.76875,18.56125 L21.02625,19.455 L21.2875,19.455 C21.6671958,19.455 21.975,19.7628042 21.975,20.1425 C21.975,20.5221958 21.6671958,20.83 21.2875,20.83 L20.14625,20.83 L20.14625,21.00875 L21.32875,21.00875 Z" id="形状"></path>
                <path d="M19.782,12.9305532 C20.1909011,12.9368435 20.59846,12.97867 21,13.0555525 L21,2.90283013 C20.9846058,1.2897672 19.6580306,-0.00764928008 18.032,3.39491319e-05 L2.968,3.39491319e-05 C1.34196943,-0.00764928043 0.0153941892,1.2897672 -3.55271368e-15,2.90283013 L-3.55271368e-15,22.0971699 C0.0153941892,23.7102328 1.34196943,25.0076493 2.968,24.9999661 L14.434,24.9999661 C13.1644376,23.6831745 12.452823,21.9331818 12.446,20.1110696 C12.457096,18.1931948 13.2366908,16.358458 14.6128733,15.0114432 C15.9890558,13.6644283 17.8487973,12.9157685 19.782,12.9305532 L19.782,12.9305532 Z M7.93800002,3.84726943 L17.864,3.84726943 C18.2660633,3.84726943 18.592,4.17061757 18.592,4.56948772 C18.592,4.96835786 18.2660633,5.29170598 17.864,5.29170598 L7.93800002,5.29170598 C7.53593673,5.29170598 7.21000001,4.96835786 7.21000001,4.56948772 C7.21000001,4.17061757 7.53593672,3.84726943 7.93800002,3.84726943 L7.93800002,3.84726943 Z M7.93800002,8.2500232 L17.864,8.2500232 C18.1610942,8.16583013 18.4793971,8.27685711 18.6580045,8.52697923 C18.8366119,8.77710135 18.8366119,9.11182635 18.6580045,9.36194848 C18.4793971,9.6120706 18.1610942,9.72309757 17.864,9.63890451 L7.93800002,9.63890451 C7.64090586,9.72309757 7.32260295,9.6120706 7.14399555,9.36194848 C6.96538815,9.11182635 6.96538815,8.77710135 7.14399555,8.52697923 C7.32260295,8.27685711 7.64090586,8.16583013 7.93800002,8.2500232 L7.93800002,8.2500232 Z M5.22200002,13.1249966 L3.82200002,14.5138779 C3.75603088,14.5817775 3.66505995,14.6201363 3.57000002,14.6201363 C3.47494008,14.6201363 3.38396915,14.5817775 3.31800002,14.5138779 L2.646,13.8611037 C2.50295825,13.719198 2.50295825,13.4891233 2.64600001,13.3472176 C2.78904176,13.2053119 3.02095827,13.2053119 3.16400001,13.3472176 L3.58400001,13.763882 L4.80200002,12.6805546 C4.87039012,12.6118491 4.96366794,12.5731777 5.06100001,12.5731777 C5.15833209,12.5731777 5.25160991,12.6118491 5.32000001,12.6805546 C5.4033411,12.8322576 5.36157559,13.0216693 5.22200002,13.1249966 L5.22200002,13.1249966 Z M5.432,8.62502114 L4.032,10.0139024 C3.9697398,10.0777235 3.8835073,10.112949 3.794,10.1111241 C3.69400969,10.1104483 3.59836287,10.0704958 3.528,10.0000136 L2.8,9.27779535 C2.70746821,9.18599844 2.67133044,9.05220153 2.70519943,8.92680462 C2.73906842,8.80140772 2.83779866,8.70346158 2.96419944,8.66986158 C3.09060021,8.63626159 3.22546823,8.67211236 3.31800002,8.76390928 L3.73800002,9.18057367 L4.956,8.09724625 C5.04750476,7.9921552 5.19164889,7.94843086 5.32674877,7.98478419 C5.46184864,8.02113753 5.5639658,8.13112706 5.58940122,8.26768494 C5.61483664,8.40424283 5.5590834,8.54317226 5.446,8.62502114 L5.432,8.62502114 Z M5.6,4.37504432 L4.116,5.69448156 C4.04995805,5.75253982 3.96610222,5.78679447 3.878,5.79170328 C3.77800969,5.79102745 3.68236286,5.75107493 3.612,5.68059276 L2.94000001,5.02781854 C2.79695827,4.88591281 2.79695827,4.65583819 2.94000002,4.51393247 C3.08304176,4.37202675 3.31495825,4.37202675 3.458,4.51393246 L3.878,4.93059685 L5.096,3.84726943 C5.19103265,3.75795352 5.32687736,3.72571888 5.45236276,3.76270798 C5.57784815,3.79969709 5.67391001,3.90029041 5.70436276,4.02659543 C5.73481551,4.15290044 5.69503265,4.28572841 5.6,4.37504432 L5.6,4.37504432 Z M7.21000001,13.4722169 C7.21000001,13.0733468 7.53593673,12.7499986 7.93800002,12.7499986 L12.726,12.7499986 C13.0230942,12.6658056 13.3413971,12.7768326 13.5200045,13.0269547 C13.6986119,13.2770768 13.6986119,13.6118018 13.5200045,13.8619239 C13.3413971,14.112046 13.0230942,14.223073 12.726,14.13888 L7.93800002,14.13888 C7.55411738,14.1470035 7.23249915,13.8524829 7.21000001,13.4722169 L7.21000001,13.4722169 Z" id="形状"></path>
            </g>
        </g>
    </g>
</svg>