<?xml version="1.0" encoding="UTF-8"?>
<svg width="26px" height="26px" viewBox="0 0 26 26" version="1.1" xmlns="http://www.w3.org/2000/svg" xmlns:xlink="http://www.w3.org/1999/xlink">
    <!-- Generator: Sketch 63.1 (92452) - https://sketch.com -->
    <title>综合监控</title>
    <desc>Created with Sketch.</desc>
    <g id="页面-1" stroke="none" stroke-width="1" fill="none" fill-rule="evenodd">
        <g id="首页1" transform="translate(-44.000000, -333.000000)">
            <g id="综合监控" transform="translate(44.000000, 333.000000)">
                <rect id="矩形" fill="#FFFFFF" opacity="0" x="0" y="0" width="26" height="26"></rect>
                <path d="M22.8753571,0.866666667 L3.12464286,0.866666667 C1.39982143,0.866666667 0,2.26327641 0,3.98499858 L0,17.8801208 C0,19.6018429 1.39982143,20.9984527 3.12464286,20.9984527 L11.87875,20.9984527 L11.87875,22.8987577 L7.39607143,22.8987577 C6.77625,22.8987577 6.27482143,23.4001635 6.27482143,24.0160455 C6.27482143,24.6319275 6.77625,25.1333333 7.39607143,25.1333333 L18.6039286,25.1333333 C19.22375,25.1333333 19.7251786,24.6319275 19.7251786,24.0160455 C19.7251786,23.4001635 19.22375,22.8987577 18.6039286,22.8987577 L14.12125,22.8987577 L14.12125,20.9984527 L22.8753571,20.9984527 C24.6001786,20.9984527 26,19.6018429 26,17.8801208 L26,3.98499858 C26,2.26327641 24.6001786,0.866666667 22.8753571,0.866666667 Z M21.9282143,12.1631789 L17.5407143,12.1631789 L16.25,15.4761204 C16.0898214,15.8882347 15.6998214,16.1675567 15.2564286,16.1881624 C15.2378571,16.1881624 15.2216071,16.1881624 15.2053571,16.1881624 C14.7828571,16.1881624 14.3928571,15.9500519 14.2025,15.5699909 L11.4701786,10.1186338 L11.1289286,11.3435293 C10.9942857,11.8266189 10.5532143,12.1631789 10.0494643,12.1631789 L4.89357143,12.1631789 C4.27375,12.1631789 3.77232143,11.6617731 3.77232143,11.0458911 C3.77232143,10.4277196 4.27375,9.92860333 4.89357143,9.92860333 L9.1975,9.92860333 L10.09125,6.72097997 C10.2142857,6.27452275 10.6019643,5.95169985 11.0639286,5.90819889 C11.5282143,5.8624084 11.9669643,6.10738749 12.1735714,6.52179136 L15.0776786,12.3188666 L15.73,10.6429349 C15.8971429,10.2125043 16.3126786,9.93089285 16.7746429,9.93089285 L21.9305357,9.93089285 C22.5503571,9.93089285 23.0517857,10.4322986 23.0517857,11.0481806 C23.0494643,11.6617731 22.5480357,12.1631789 21.9282143,12.1631789 Z" id="形状" fill="#0167FF" fill-rule="nonzero"></path>
            </g>
        </g>
    </g>
</svg>