<?xml version="1.0" encoding="UTF-8"?>
<svg width="45px" height="45px" viewBox="0 0 45 45" version="1.1" xmlns="http://www.w3.org/2000/svg" xmlns:xlink="http://www.w3.org/1999/xlink">
    <!-- Generator: Sketch 63.1 (92452) - https://sketch.com -->
    <title>变压器</title>
    <desc>Created with Sketch.</desc>
    <g id="页面-1" stroke="none" stroke-width="1" fill="none" fill-rule="evenodd">
        <g id="变压器">
            <rect id="矩形备份-14" stroke="#133A6E" fill="#082955" x="0.5" y="0.5" width="44" height="44" rx="2"></rect>
            <text font-family="SourceHanSansCN-Regular, Source Han Sans CN" font-size="10" font-weight="normal" letter-spacing="0.625" fill="#7F94B2">
                <tspan x="8.1" y="39.1">变压器</tspan>
            </text>
            <path d="M26.955,3.06 C27.2830571,3.06 27.549,3.32594286 27.549,3.654 L27.549,4.033 L27.7909091,4.03363636 C28.1493921,4.03363636 28.44,4.32424426 28.44,4.68272727 C28.44,5.04121028 28.1493921,5.33181818 27.7909091,5.33181818 L27.549,5.331 L27.549,5.98 L27.7909091,5.98090909 C28.1493921,5.98090909 28.44,6.27151699 28.44,6.63 C28.44,6.98848301 28.1493921,7.27909091 27.7909091,7.27909091 L27.549,7.279 L27.5489806,9.32496696 C28.2824782,9.62140682 28.8,10.3402666 28.8,11.18 L28.8,12.521 L30.4,12.5213793 C31.5045695,12.5213793 32.4,13.4168098 32.4,14.5213793 L32.4,26.56 C32.4,27.6645695 31.5045695,28.56 30.4,28.56 L14.6,28.56 C13.4954305,28.56 12.6,27.6645695 12.6,26.56 L12.6,14.5213793 C12.6,13.4168098 13.4954305,12.5213793 14.6,12.5213793 L16.199,12.521 L16.2,11.18 C16.2,10.0754305 17.0954305,9.18 18.2,9.18 L18.44,9.18 L18.441,7.279 L18.1990909,7.27909091 C17.8406079,7.27909091 17.55,6.98848301 17.55,6.63 C17.55,6.27151699 17.8406079,5.98090909 18.1990909,5.98090909 L18.441,5.98 L18.441,5.331 L18.1990909,5.33181818 C17.8406079,5.33181818 17.55,5.04121028 17.55,4.68272727 C17.55,4.32424426 17.8406079,4.03363636 18.1990909,4.03363636 L18.441,4.033 L18.441,3.654 C18.441,3.32594286 18.7069429,3.06 19.035,3.06 C19.3630571,3.06 19.629,3.32594286 19.629,3.654 L19.629,4.033 L19.8709091,4.03363636 C20.2293921,4.03363636 20.52,4.32424426 20.52,4.68272727 C20.52,5.04121028 20.2293921,5.33181818 19.8709091,5.33181818 L19.629,5.331 L19.629,5.98 L19.8709091,5.98090909 C20.2293921,5.98090909 20.52,6.27151699 20.52,6.63 C20.52,6.98848301 20.2293921,7.27909091 19.8709091,7.27909091 L19.629,7.279 L19.628,9.18 L22.4,9.18 L22.401,7.279 L22.1590909,7.27909091 C21.8006079,7.27909091 21.51,6.98848301 21.51,6.63 C21.51,6.27151699 21.8006079,5.98090909 22.1590909,5.98090909 L22.401,5.98 L22.401,5.331 L22.1590909,5.33181818 C21.8006079,5.33181818 21.51,5.04121028 21.51,4.68272727 C21.51,4.32424426 21.8006079,4.03363636 22.1590909,4.03363636 L22.401,4.033 L22.401,3.654 C22.401,3.32594286 22.6669429,3.06 22.995,3.06 C23.3230571,3.06 23.589,3.32594286 23.589,3.654 L23.589,4.033 L23.8309091,4.03363636 C24.1893921,4.03363636 24.48,4.32424426 24.48,4.68272727 C24.48,5.04121028 24.1893921,5.33181818 23.8309091,5.33181818 L23.589,5.331 L23.589,5.98 L23.8309091,5.98090909 C24.1893921,5.98090909 24.48,6.27151699 24.48,6.63 C24.48,6.98848301 24.1893921,7.27909091 23.8309091,7.27909091 L23.589,7.279 L23.588,9.18 L26.36,9.18 L26.361,7.279 L26.1190909,7.27909091 C25.7606079,7.27909091 25.47,6.98848301 25.47,6.63 C25.47,6.27151699 25.7606079,5.98090909 26.1190909,5.98090909 L26.361,5.98 L26.361,5.331 L26.1190909,5.33181818 C25.7606079,5.33181818 25.47,5.04121028 25.47,4.68272727 C25.47,4.32424426 25.7606079,4.03363636 26.1190909,4.03363636 L26.361,4.033 L26.361,3.654 C26.361,3.32594286 26.6269429,3.06 26.955,3.06 Z M17.1,16.6819355 C16.6411788,16.6819355 16.2625482,17.0252721 16.2070123,17.4690414 L16.2,17.5819355 L16.2,24.5341935 C16.2,25.0312498 16.6029437,25.4341935 17.1,25.4341935 C17.5588212,25.4341935 17.9374518,25.0908569 17.9929877,24.6470876 L18,24.5341935 L18,17.5819355 C18,17.0848792 17.5970563,16.6819355 17.1,16.6819355 Z M20.7,16.6819355 C20.2411788,16.6819355 19.8625482,17.0252721 19.8070123,17.4690414 L19.8,17.5819355 L19.8,24.5341935 C19.8,25.0312498 20.2029437,25.4341935 20.7,25.4341935 C21.1588212,25.4341935 21.5374518,25.0908569 21.5929877,24.6470876 L21.6,24.5341935 L21.6,17.5819355 C21.6,17.0848792 21.1970563,16.6819355 20.7,16.6819355 Z M24.9,16.6819355 C24.4411788,16.6819355 24.0625482,17.0252721 24.0070123,17.4690414 L24,17.5819355 L24,24.5341935 C24,25.0312498 24.4029437,25.4341935 24.9,25.4341935 C25.3588212,25.4341935 25.7374518,25.0908569 25.7929877,24.6470876 L25.8,24.5341935 L25.8,17.5819355 C25.8,17.0848792 25.3970563,16.6819355 24.9,16.6819355 Z M28.5,16.6819355 C28.0411788,16.6819355 27.6625482,17.0252721 27.6070123,17.4690414 L27.6,17.5819355 L27.6,24.5341935 C27.6,25.0312498 28.0029437,25.4341935 28.5,25.4341935 C28.9588212,25.4341935 29.3374518,25.0908569 29.3929877,24.6470876 L29.4,24.5341935 L29.4,17.5819355 C29.4,17.0848792 28.9970563,16.6819355 28.5,16.6819355 Z" id="形状结合" fill="#4179CC"></path>
        </g>
    </g>
</svg>