<?xml version="1.0" encoding="UTF-8"?>
<svg width="45px" height="45px" viewBox="0 0 45 45" version="1.1" xmlns="http://www.w3.org/2000/svg" xmlns:xlink="http://www.w3.org/1999/xlink">
    <!-- Generator: Sketch 63.1 (92452) - https://sketch.com -->
    <title>静态开关</title>
    <desc>Created with Sketch.</desc>
    <g id="页面-1" stroke="none" stroke-width="1" fill="none" fill-rule="evenodd">
        <g id="静态开关">
            <rect id="矩形备份-17" stroke="#133A6E" fill="#082955" x="0.5" y="0.5" width="44" height="44" rx="2"></rect>
            <text font-family="SourceHanSansCN-Regular, Source Han Sans CN" font-size="10" font-weight="normal" letter-spacing="0.625" fill="#7F94B2">
                <tspan x="1.6" y="39.1">静态开关</tspan>
            </text>
            <path d="M28.6,6.12 C29.7045695,6.12 30.6,7.0154305 30.6,8.12 L30.6,26.56 C30.6,27.6645695 29.7045695,28.56 28.6,28.56 L17.3,28.56 C16.1954305,28.56 15.3,27.6645695 15.3,26.56 L15.299,24.48 L14.4,24.48 L14.4,22.44 L15.299,22.44 L15.299,13.26 L14.4,13.26 L14.4,11.22 L15.299,11.22 L15.3,8.12 C15.3,7.0154305 16.1954305,6.12 17.3,6.12 L28.6,6.12 Z M23.814267,16.1939412 L21.1687042,21.5407393 L22.95,21.0026791 L22.6315613,24.5876099 L25.3229988,19.1514071 L23.5734535,19.7338782 L23.814267,16.1939412 Z M27.73125,9.93957447 L18.646875,9.93957447 L18.646875,12.3268085 L27.73125,12.3268085 L27.73125,9.93957447 Z" id="形状结合" fill="#4179CC"></path>
        </g>
    </g>
</svg>